# MagicaVoxel @ Ephtracy

# group
o 

# material
mtllib Archer.mtl
usemtl palette

# normals
vn -1 0 0
vn 1 0 0
vn 0 0 1
vn 0 0 -1
vn 0 -1 0
vn 0 1 0

# texcoords
vt 0.306641 0.5
vt 0.396484 0.5
vt 0.970703 0.5
vt 0.974609 0.5
vt 0.978516 0.5
vt 0.982422 0.5

# verts
v -0.3 0 0.3
v -0.3 0 0.1
v -0.3 0 -0.1
v -0.3 0 -0.3
v -0.3 0.1 0.1
v -0.3 0.1 -0.1
v -0.3 0.2 0.3
v -0.3 0.2 0.2
v -0.3 0.2 0.1
v -0.3 0.2 -0.1
v -0.3 0.2 -0.2
v -0.3 0.2 -0.3
v -0.3 0.3 0.1
v -0.3 0.3 -0.1
v -0.3 0.4 0.3
v -0.3 0.4 0.2
v -0.3 0.4 0.1
v -0.3 0.4 -0.1
v -0.3 0.4 -0.2
v -0.3 0.4 -0.3
v -0.3 0.6 0.3
v -0.3 0.6 -0.3
v -0.3 0.9 0.3
v -0.3 0.9 -0.3
v -0.3 1 0.3
v -0.3 1 -0.3
v -0.2 0.1 0.1
v -0.2 0.1 -0.1
v -0.2 0.2 0.1
v -0.2 0.2 -0.1
v -0.2 0.3 0.1
v -0.2 0.3 -0.1
v -0.2 0.6 0.2
v -0.2 0.6 0.1
v -0.2 0.6 -0.1
v -0.2 0.6 -0.2
v -0.2 0.9 0.2
v -0.2 0.9 0.1
v -0.2 0.9 -0.1
v -0.2 0.9 -0.2
v -0.2 1 0.2
v -0.2 1 -0.2
v -0.2 1.1 0.2
v -0.2 1.1 -0.2
v -0.1 0.2 0.2
v -0.1 0.2 0.1
v -0.1 0.2 -0.1
v -0.1 0.2 -0.2
v -0.1 0.3 0.3
v -0.1 0.3 0.2
v -0.1 0.3 -0.2
v -0.1 0.3 -0.3
v -0.1 0.4 0.3
v -0.1 0.4 0.1
v -0.1 0.4 -0.1
v -0.1 0.4 -0.3
v 0.1 0 0.1
v 0.1 0 -0.1
v 0.1 0.1 0.3
v 0.1 0.1 0.2
v 0.1 0.1 -0.2
v 0.1 0.1 -0.3
v 0.1 0.2 0.3
v 0.1 0.2 0.2
v 0.1 0.2 -0.2
v 0.1 0.2 -0.3
v 0.1 0.4 0.1
v 0.1 0.4 -0.1
v 0.1 0.5 0.2
v 0.1 0.5 0.1
v 0.1 0.5 -0.1
v 0.1 0.5 -0.2
v 0.1 0.6 0.2
v 0.1 0.6 -0.2
v 0.1 0.9 0.2
v 0.1 0.9 0.1
v 0.1 0.9 -0.1
v 0.1 0.9 -0.2
v 0.1 1 0.1
v 0.1 1 -0.1
v 0.2 0.2 0.3
v 0.2 0.2 0.2
v 0.2 0.2 -0.2
v 0.2 0.2 -0.3
v 0.2 0.4 0.3
v 0.2 0.4 0.2
v 0.2 0.4 -0.2
v 0.2 0.4 -0.3
v 0.2 0.5 0.1
v 0.2 0.5 -0.1
v 0.2 0.6 0.1
v 0.2 0.6 -0.1
v -0.2 0.2 0.3
v -0.2 0.2 0.2
v -0.2 0.2 -0.2
v -0.2 0.2 -0.3
v -0.2 0.4 0.3
v -0.2 0.4 0.2
v -0.2 0.4 -0.2
v -0.2 0.4 -0.3
v -0.2 0.5 0.1
v -0.2 0.5 -0.1
v -0.2 0.6 0.1
v -0.2 0.6 -0.1
v -0.1 0 0.1
v -0.1 0 -0.1
v -0.1 0.1 0.3
v -0.1 0.1 0.2
v -0.1 0.1 -0.2
v -0.1 0.1 -0.3
v -0.1 0.2 0.3
v -0.1 0.2 0.2
v -0.1 0.2 -0.2
v -0.1 0.2 -0.3
v -0.1 0.4 0.1
v -0.1 0.4 -0.1
v -0.1 0.5 0.2
v -0.1 0.5 0.1
v -0.1 0.5 -0.1
v -0.1 0.5 -0.2
v -0.1 0.6 0.2
v -0.1 0.6 -0.2
v -0.1 0.9 0.2
v -0.1 0.9 0.1
v -0.1 0.9 -0.1
v -0.1 0.9 -0.2
v -0.1 1 0.1
v -0.1 1 -0.1
v 0.1 0.2 0.2
v 0.1 0.2 0.1
v 0.1 0.2 -0.1
v 0.1 0.2 -0.2
v 0.1 0.3 0.3
v 0.1 0.3 0.2
v 0.1 0.3 -0.2
v 0.1 0.3 -0.3
v 0.1 0.4 0.3
v 0.1 0.4 0.1
v 0.1 0.4 -0.1
v 0.1 0.4 -0.3
v 0.2 0.1 0.1
v 0.2 0.1 -0.1
v 0.2 0.2 0.1
v 0.2 0.2 -0.1
v 0.2 0.3 0.1
v 0.2 0.3 -0.1
v 0.2 0.6 0.2
v 0.2 0.6 0.1
v 0.2 0.6 -0.1
v 0.2 0.6 -0.2
v 0.2 0.9 0.2
v 0.2 0.9 0.1
v 0.2 0.9 -0.1
v 0.2 0.9 -0.2
v 0.2 1 0.2
v 0.2 1 -0.2
v 0.2 1.1 0.2
v 0.2 1.1 -0.2
v 0.3 0 0.3
v 0.3 0 0.1
v 0.3 0 -0.1
v 0.3 0 -0.3
v 0.3 0.1 0.1
v 0.3 0.1 -0.1
v 0.3 0.2 0.3
v 0.3 0.2 0.2
v 0.3 0.2 0.1
v 0.3 0.2 -0.1
v 0.3 0.2 -0.2
v 0.3 0.2 -0.3
v 0.3 0.3 0.1
v 0.3 0.3 -0.1
v 0.3 0.4 0.3
v 0.3 0.4 0.2
v 0.3 0.4 0.1
v 0.3 0.4 -0.1
v 0.3 0.4 -0.2
v 0.3 0.4 -0.3
v 0.3 0.6 0.3
v 0.3 0.6 -0.3
v 0.3 0.9 0.3
v 0.3 0.9 -0.3
v 0.3 1 0.3
v 0.3 1 -0.3
v -0.3 0 0.3
v -0.3 0.2 0.3
v -0.3 0.4 0.3
v -0.3 0.6 0.3
v -0.3 0.9 0.3
v -0.3 1 0.3
v -0.2 0.2 0.3
v -0.2 0.4 0.3
v -0.1 0 0.3
v -0.1 0.1 0.3
v -0.1 0.2 0.3
v -0.1 0.3 0.3
v -0.1 0.4 0.3
v 0.1 0 0.3
v 0.1 0.1 0.3
v 0.1 0.2 0.3
v 0.1 0.3 0.3
v 0.1 0.4 0.3
v 0.2 0.2 0.3
v 0.2 0.4 0.3
v 0.3 0 0.3
v 0.3 0.2 0.3
v 0.3 0.4 0.3
v 0.3 0.6 0.3
v 0.3 0.9 0.3
v 0.3 1 0.3
v -0.2 0.6 0.2
v -0.2 0.9 0.2
v -0.2 1 0.2
v -0.2 1.1 0.2
v -0.1 0.1 0.2
v -0.1 0.2 0.2
v -0.1 0.3 0.2
v -0.1 0.6 0.2
v -0.1 0.9 0.2
v 0.1 0.1 0.2
v 0.1 0.2 0.2
v 0.1 0.3 0.2
v 0.1 0.6 0.2
v 0.1 0.9 0.2
v 0.2 0.6 0.2
v 0.2 0.9 0.2
v 0.2 1 0.2
v 0.2 1.1 0.2
v -0.3 0.3 0.1
v -0.3 0.4 0.1
v -0.2 0.2 0.1
v -0.2 0.3 0.1
v -0.1 0.2 0.1
v -0.1 0.4 0.1
v 0.1 0.2 0.1
v 0.1 0.4 0.1
v 0.2 0.2 0.1
v 0.2 0.3 0.1
v 0.3 0.3 0.1
v 0.3 0.4 0.1
v -0.3 0.1 -0.1
v -0.3 0.2 -0.1
v -0.2 0.1 -0.1
v -0.2 0.2 -0.1
v -0.2 0.5 -0.1
v -0.2 0.6 -0.1
v -0.2 0.9 -0.1
v -0.1 0 -0.1
v -0.1 0.4 -0.1
v -0.1 0.5 -0.1
v -0.1 0.9 -0.1
v -0.1 1 -0.1
v 0.1 0 -0.1
v 0.1 0.4 -0.1
v 0.1 0.5 -0.1
v 0.1 0.9 -0.1
v 0.1 1 -0.1
v 0.2 0.1 -0.1
v 0.2 0.2 -0.1
v 0.2 0.5 -0.1
v 0.2 0.6 -0.1
v 0.2 0.9 -0.1
v 0.3 0.1 -0.1
v 0.3 0.2 -0.1
v -0.3 0.2 -0.2
v -0.3 0.4 -0.2
v -0.2 0.2 -0.2
v -0.2 0.4 -0.2
v -0.1 0.5 -0.2
v -0.1 0.6 -0.2
v 0.1 0.5 -0.2
v 0.1 0.6 -0.2
v 0.2 0.2 -0.2
v 0.2 0.4 -0.2
v 0.3 0.2 -0.2
v 0.3 0.4 -0.2
v -0.3 0.2 0.2
v -0.3 0.4 0.2
v -0.2 0.2 0.2
v -0.2 0.4 0.2
v -0.1 0.5 0.2
v -0.1 0.6 0.2
v 0.1 0.5 0.2
v 0.1 0.6 0.2
v 0.2 0.2 0.2
v 0.2 0.4 0.2
v 0.3 0.2 0.2
v 0.3 0.4 0.2
v -0.3 0.1 0.1
v -0.3 0.2 0.1
v -0.2 0.1 0.1
v -0.2 0.2 0.1
v -0.2 0.5 0.1
v -0.2 0.6 0.1
v -0.2 0.9 0.1
v -0.1 0 0.1
v -0.1 0.4 0.1
v -0.1 0.5 0.1
v -0.1 0.9 0.1
v -0.1 1 0.1
v 0.1 0 0.1
v 0.1 0.4 0.1
v 0.1 0.5 0.1
v 0.1 0.9 0.1
v 0.1 1 0.1
v 0.2 0.1 0.1
v 0.2 0.2 0.1
v 0.2 0.5 0.1
v 0.2 0.6 0.1
v 0.2 0.9 0.1
v 0.3 0.1 0.1
v 0.3 0.2 0.1
v -0.3 0.3 -0.1
v -0.3 0.4 -0.1
v -0.2 0.2 -0.1
v -0.2 0.3 -0.1
v -0.1 0.2 -0.1
v -0.1 0.4 -0.1
v 0.1 0.2 -0.1
v 0.1 0.4 -0.1
v 0.2 0.2 -0.1
v 0.2 0.3 -0.1
v 0.3 0.3 -0.1
v 0.3 0.4 -0.1
v -0.2 0.6 -0.2
v -0.2 0.9 -0.2
v -0.2 1 -0.2
v -0.2 1.1 -0.2
v -0.1 0.1 -0.2
v -0.1 0.2 -0.2
v -0.1 0.3 -0.2
v -0.1 0.6 -0.2
v -0.1 0.9 -0.2
v 0.1 0.1 -0.2
v 0.1 0.2 -0.2
v 0.1 0.3 -0.2
v 0.1 0.6 -0.2
v 0.1 0.9 -0.2
v 0.2 0.6 -0.2
v 0.2 0.9 -0.2
v 0.2 1 -0.2
v 0.2 1.1 -0.2
v -0.3 0 -0.3
v -0.3 0.2 -0.3
v -0.3 0.4 -0.3
v -0.3 0.6 -0.3
v -0.3 0.9 -0.3
v -0.3 1 -0.3
v -0.2 0.2 -0.3
v -0.2 0.4 -0.3
v -0.1 0 -0.3
v -0.1 0.1 -0.3
v -0.1 0.2 -0.3
v -0.1 0.3 -0.3
v -0.1 0.4 -0.3
v 0.1 0 -0.3
v 0.1 0.1 -0.3
v 0.1 0.2 -0.3
v 0.1 0.3 -0.3
v 0.1 0.4 -0.3
v 0.2 0.2 -0.3
v 0.2 0.4 -0.3
v 0.3 0 -0.3
v 0.3 0.2 -0.3
v 0.3 0.4 -0.3
v 0.3 0.6 -0.3
v 0.3 0.9 -0.3
v 0.3 1 -0.3
v -0.3 0 0.3
v -0.1 0 0.3
v 0.1 0 0.3
v 0.3 0 0.3
v -0.3 0 0.1
v -0.1 0 0.1
v 0.1 0 0.1
v 0.3 0 0.1
v -0.3 0 -0.1
v -0.1 0 -0.1
v 0.1 0 -0.1
v 0.3 0 -0.1
v -0.3 0 -0.3
v -0.1 0 -0.3
v 0.1 0 -0.3
v 0.3 0 -0.3
v -0.1 0.3 0.3
v 0.1 0.3 0.3
v -0.1 0.3 0.2
v 0.1 0.3 0.2
v -0.3 0.3 0.1
v -0.2 0.3 0.1
v 0.2 0.3 0.1
v 0.3 0.3 0.1
v -0.3 0.3 -0.1
v -0.2 0.3 -0.1
v 0.2 0.3 -0.1
v 0.3 0.3 -0.1
v -0.1 0.3 -0.2
v 0.1 0.3 -0.2
v -0.1 0.3 -0.3
v 0.1 0.3 -0.3
v -0.2 0.4 0.3
v -0.1 0.4 0.3
v 0.1 0.4 0.3
v 0.2 0.4 0.3
v -0.3 0.4 0.2
v -0.2 0.4 0.2
v 0.2 0.4 0.2
v 0.3 0.4 0.2
v -0.3 0.4 0.1
v -0.1 0.4 0.1
v 0.1 0.4 0.1
v 0.3 0.4 0.1
v -0.3 0.4 -0.1
v -0.1 0.4 -0.1
v 0.1 0.4 -0.1
v 0.3 0.4 -0.1
v -0.3 0.4 -0.2
v -0.2 0.4 -0.2
v 0.2 0.4 -0.2
v 0.3 0.4 -0.2
v -0.2 0.4 -0.3
v -0.1 0.4 -0.3
v 0.1 0.4 -0.3
v 0.2 0.4 -0.3
v -0.3 0.9 0.3
v 0.3 0.9 0.3
v -0.2 0.9 0.2
v -0.1 0.9 0.2
v 0.1 0.9 0.2
v 0.2 0.9 0.2
v -0.2 0.9 0.1
v -0.1 0.9 0.1
v 0.1 0.9 0.1
v 0.2 0.9 0.1
v -0.2 0.9 -0.1
v -0.1 0.9 -0.1
v 0.1 0.9 -0.1
v 0.2 0.9 -0.1
v -0.2 0.9 -0.2
v -0.1 0.9 -0.2
v 0.1 0.9 -0.2
v 0.2 0.9 -0.2
v -0.3 0.9 -0.3
v 0.3 0.9 -0.3
v -0.1 1 0.1
v 0.1 1 0.1
v -0.1 1 -0.1
v 0.1 1 -0.1
v -0.1 0.1 0.3
v 0.1 0.1 0.3
v -0.1 0.1 0.2
v 0.1 0.1 0.2
v -0.3 0.1 0.1
v -0.2 0.1 0.1
v 0.2 0.1 0.1
v 0.3 0.1 0.1
v -0.3 0.1 -0.1
v -0.2 0.1 -0.1
v 0.2 0.1 -0.1
v 0.3 0.1 -0.1
v -0.1 0.1 -0.2
v 0.1 0.1 -0.2
v -0.1 0.1 -0.3
v 0.1 0.1 -0.3
v -0.2 0.2 0.3
v -0.1 0.2 0.3
v 0.1 0.2 0.3
v 0.2 0.2 0.3
v -0.3 0.2 0.2
v -0.2 0.2 0.2
v -0.1 0.2 0.2
v 0.1 0.2 0.2
v 0.2 0.2 0.2
v 0.3 0.2 0.2
v -0.3 0.2 0.1
v -0.2 0.2 0.1
v -0.1 0.2 0.1
v 0.1 0.2 0.1
v 0.2 0.2 0.1
v 0.3 0.2 0.1
v -0.3 0.2 -0.1
v -0.2 0.2 -0.1
v -0.1 0.2 -0.1
v 0.1 0.2 -0.1
v 0.2 0.2 -0.1
v 0.3 0.2 -0.1
v -0.3 0.2 -0.2
v -0.2 0.2 -0.2
v -0.1 0.2 -0.2
v 0.1 0.2 -0.2
v 0.2 0.2 -0.2
v 0.3 0.2 -0.2
v -0.2 0.2 -0.3
v -0.1 0.2 -0.3
v 0.1 0.2 -0.3
v 0.2 0.2 -0.3
v -0.1 0.5 0.2
v 0.1 0.5 0.2
v -0.2 0.5 0.1
v -0.1 0.5 0.1
v 0.1 0.5 0.1
v 0.2 0.5 0.1
v -0.2 0.5 -0.1
v -0.1 0.5 -0.1
v 0.1 0.5 -0.1
v 0.2 0.5 -0.1
v -0.1 0.5 -0.2
v 0.1 0.5 -0.2
v -0.3 0.6 0.3
v 0.3 0.6 0.3
v -0.2 0.6 0.2
v -0.1 0.6 0.2
v 0.1 0.6 0.2
v 0.2 0.6 0.2
v -0.2 0.6 0.1
v 0.2 0.6 0.1
v -0.2 0.6 -0.1
v 0.2 0.6 -0.1
v -0.2 0.6 -0.2
v -0.1 0.6 -0.2
v 0.1 0.6 -0.2
v 0.2 0.6 -0.2
v -0.3 0.6 -0.3
v 0.3 0.6 -0.3
v -0.3 1 0.3
v 0.3 1 0.3
v -0.2 1 0.2
v 0.2 1 0.2
v -0.2 1 -0.2
v 0.2 1 -0.2
v -0.3 1 -0.3
v 0.3 1 -0.3
v -0.2 1.1 0.2
v 0.2 1.1 0.2
v -0.1 1.1 0.1
v 0.1 1.1 0.1
v -0.1 1.1 -0.1
v 0.1 1.1 -0.1
v -0.2 1.1 -0.2
v 0.2 1.1 -0.2

# faces
f 5/5/1 2/5/1 1/5/1
f 5/3/1 3/3/1 2/3/1
f 6/5/1 4/5/1 3/5/1
f 6/3/1 3/3/1 5/3/1
f 7/5/1 5/5/1 1/5/1
f 8/5/1 5/5/1 7/5/1
f 9/5/1 5/5/1 8/5/1
f 10/5/1 4/5/1 6/5/1
f 11/5/1 4/5/1 10/5/1
f 12/5/1 4/5/1 11/5/1
f 15/4/1 8/4/1 7/4/1
f 16/4/1 8/4/1 15/4/1
f 17/3/1 14/3/1 13/3/1
f 18/3/1 14/3/1 17/3/1
f 19/4/1 12/4/1 11/4/1
f 20/4/1 12/4/1 19/4/1
f 21/5/1 16/5/1 15/5/1
f 21/5/1 18/5/1 17/5/1
f 21/5/1 20/5/1 19/5/1
f 21/5/1 19/5/1 18/5/1
f 21/5/1 17/5/1 16/5/1
f 22/5/1 20/5/1 21/5/1
f 25/5/1 24/5/1 23/5/1
f 26/5/1 24/5/1 25/5/1
f 29/3/1 28/3/1 27/3/1
f 30/3/1 28/3/1 29/3/1
f 31/3/1 30/3/1 29/3/1
f 32/3/1 30/3/1 31/3/1
f 37/4/1 34/4/1 33/4/1
f 38/4/1 34/4/1 37/4/1
f 39/4/1 36/4/1 35/4/1
f 40/4/1 36/4/1 39/4/1
f 43/5/1 42/5/1 41/5/1
f 44/5/1 42/5/1 43/5/1
f 50/3/1 46/3/1 45/3/1
f 51/3/1 48/3/1 47/3/1
f 53/3/1 50/3/1 49/3/1
f 54/3/1 46/3/1 50/3/1
f 54/3/1 50/3/1 53/3/1
f 55/3/1 52/3/1 51/3/1
f 55/3/1 51/3/1 47/3/1
f 56/3/1 52/3/1 55/3/1
f 63/5/1 60/5/1 59/5/1
f 64/5/1 60/5/1 63/5/1
f 65/5/1 62/5/1 61/5/1
f 66/5/1 62/5/1 65/5/1
f 67/3/1 58/3/1 57/3/1
f 68/3/1 58/3/1 67/3/1
f 73/4/1 70/4/1 69/4/1
f 74/4/1 72/4/1 71/4/1
f 75/4/1 70/4/1 73/4/1
f 76/4/1 70/4/1 75/4/1
f 77/4/1 74/4/1 71/4/1
f 78/4/1 74/4/1 77/4/1
f 79/2/1 77/2/1 76/2/1
f 80/2/1 77/2/1 79/2/1
f 85/4/1 82/4/1 81/4/1
f 86/4/1 82/4/1 85/4/1
f 87/4/1 84/4/1 83/4/1
f 88/4/1 84/4/1 87/4/1
f 91/5/1 90/5/1 89/5/1
f 92/5/1 90/5/1 91/5/1
f 93/4/2 94/4/2 97/4/2
f 97/4/2 94/4/2 98/4/2
f 95/4/2 96/4/2 99/4/2
f 99/4/2 96/4/2 100/4/2
f 101/5/2 102/5/2 103/5/2
f 103/5/2 102/5/2 104/5/2
f 107/5/2 108/5/2 111/5/2
f 111/5/2 108/5/2 112/5/2
f 109/5/2 110/5/2 113/5/2
f 113/5/2 110/5/2 114/5/2
f 105/3/2 106/3/2 115/3/2
f 115/3/2 106/3/2 116/3/2
f 117/4/2 118/4/2 121/4/2
f 119/4/2 120/4/2 122/4/2
f 121/4/2 118/4/2 123/4/2
f 123/4/2 118/4/2 124/4/2
f 119/4/2 122/4/2 125/4/2
f 125/4/2 122/4/2 126/4/2
f 124/2/2 125/2/2 127/2/2
f 127/2/2 125/2/2 128/2/2
f 129/3/2 130/3/2 134/3/2
f 131/3/2 132/3/2 135/3/2
f 133/3/2 134/3/2 137/3/2
f 134/3/2 130/3/2 138/3/2
f 137/3/2 134/3/2 138/3/2
f 135/3/2 136/3/2 139/3/2
f 131/3/2 135/3/2 139/3/2
f 139/3/2 136/3/2 140/3/2
f 141/3/2 142/3/2 143/3/2
f 143/3/2 142/3/2 144/3/2
f 143/3/2 144/3/2 145/3/2
f 145/3/2 144/3/2 146/3/2
f 147/4/2 148/4/2 151/4/2
f 151/4/2 148/4/2 152/4/2
f 149/4/2 150/4/2 153/4/2
f 153/4/2 150/4/2 154/4/2
f 155/5/2 156/5/2 157/5/2
f 157/5/2 156/5/2 158/5/2
f 159/5/2 160/5/2 163/5/2
f 160/3/2 161/3/2 163/3/2
f 161/5/2 162/5/2 164/5/2
f 163/3/2 161/3/2 164/3/2
f 159/5/2 163/5/2 165/5/2
f 165/5/2 163/5/2 166/5/2
f 166/5/2 163/5/2 167/5/2
f 164/5/2 162/5/2 168/5/2
f 168/5/2 162/5/2 169/5/2
f 169/5/2 162/5/2 170/5/2
f 165/4/2 166/4/2 173/4/2
f 173/4/2 166/4/2 174/4/2
f 171/3/2 172/3/2 175/3/2
f 175/3/2 172/3/2 176/3/2
f 169/4/2 170/4/2 177/4/2
f 177/4/2 170/4/2 178/4/2
f 173/5/2 174/5/2 179/5/2
f 175/5/2 176/5/2 179/5/2
f 177/5/2 178/5/2 179/5/2
f 176/5/2 177/5/2 179/5/2
f 174/5/2 175/5/2 179/5/2
f 179/5/2 178/5/2 180/5/2
f 181/5/2 182/5/2 183/5/2
f 183/5/2 182/5/2 184/5/2
f 191/5/3 186/5/3 185/5/3
f 191/4/3 187/4/3 186/4/3
f 192/5/3 188/5/3 187/5/3
f 192/4/3 187/4/3 191/4/3
f 193/5/3 191/5/3 185/5/3
f 194/5/3 191/5/3 193/5/3
f 195/5/3 191/5/3 194/5/3
f 197/5/3 188/5/3 192/5/3
f 198/3/3 194/3/3 193/3/3
f 199/3/3 194/3/3 198/3/3
f 201/3/3 197/3/3 196/3/3
f 202/5/3 188/5/3 197/5/3
f 202/3/3 197/3/3 201/3/3
f 203/5/3 200/5/3 199/5/3
f 203/5/3 199/5/3 198/5/3
f 204/5/3 188/5/3 202/5/3
f 205/5/3 203/5/3 198/5/3
f 206/4/3 204/4/3 203/4/3
f 206/5/3 203/5/3 205/5/3
f 207/5/3 188/5/3 204/5/3
f 207/4/3 204/4/3 206/4/3
f 208/5/3 188/5/3 207/5/3
f 209/5/3 190/5/3 189/5/3
f 210/5/3 190/5/3 209/5/3
f 218/4/3 212/4/3 211/4/3
f 219/4/3 212/4/3 218/4/3
f 220/3/3 217/3/3 216/3/3
f 220/3/3 216/3/3 215/3/3
f 221/3/3 217/3/3 220/3/3
f 222/3/3 217/3/3 221/3/3
f 225/4/3 224/4/3 223/4/3
f 226/4/3 224/4/3 225/4/3
f 227/5/3 214/5/3 213/5/3
f 228/5/3 214/5/3 227/5/3
f 232/3/3 230/3/3 229/3/3
f 233/3/3 232/3/3 231/3/3
f 234/3/3 230/3/3 232/3/3
f 234/3/3 232/3/3 233/3/3
f 237/3/3 236/3/3 235/3/3
f 238/3/3 236/3/3 237/3/3
f 239/3/3 236/3/3 238/3/3
f 240/3/3 236/3/3 239/3/3
f 243/5/3 242/5/3 241/5/3
f 244/5/3 242/5/3 243/5/3
f 250/4/3 247/4/3 246/4/3
f 250/4/3 246/4/3 245/4/3
f 251/4/3 247/4/3 250/4/3
f 253/3/3 249/3/3 248/3/3
f 254/3/3 249/3/3 253/3/3
f 256/2/3 252/2/3 251/2/3
f 257/2/3 252/2/3 256/2/3
f 260/4/3 256/4/3 255/4/3
f 261/4/3 256/4/3 260/4/3
f 262/4/3 256/4/3 261/4/3
f 263/5/3 259/5/3 258/5/3
f 264/5/3 259/5/3 263/5/3
f 267/4/3 266/4/3 265/4/3
f 268/4/3 266/4/3 267/4/3
f 271/5/3 270/5/3 269/5/3
f 272/5/3 270/5/3 271/5/3
f 275/4/3 274/4/3 273/4/3
f 276/4/3 274/4/3 275/4/3
f 277/4/4 278/4/4 279/4/4
f 279/4/4 278/4/4 280/4/4
f 281/5/4 282/5/4 283/5/4
f 283/5/4 282/5/4 284/5/4
f 285/4/4 286/4/4 287/4/4
f 287/4/4 286/4/4 288/4/4
f 289/5/4 290/5/4 291/5/4
f 291/5/4 290/5/4 292/5/4
f 294/4/4 295/4/4 298/4/4
f 293/4/4 294/4/4 298/4/4
f 298/4/4 295/4/4 299/4/4
f 296/3/4 297/3/4 301/3/4
f 301/3/4 297/3/4 302/3/4
f 299/2/4 300/2/4 304/2/4
f 304/2/4 300/2/4 305/2/4
f 303/4/4 304/4/4 308/4/4
f 308/4/4 304/4/4 309/4/4
f 309/4/4 304/4/4 310/4/4
f 306/5/4 307/5/4 311/5/4
f 311/5/4 307/5/4 312/5/4
f 313/3/4 314/3/4 316/3/4
f 315/3/4 316/3/4 317/3/4
f 316/3/4 314/3/4 318/3/4
f 317/3/4 316/3/4 318/3/4
f 319/3/4 320/3/4 321/3/4
f 321/3/4 320/3/4 322/3/4
f 322/3/4 320/3/4 323/3/4
f 323/3/4 320/3/4 324/3/4
f 325/4/4 326/4/4 332/4/4
f 332/4/4 326/4/4 333/4/4
f 330/3/4 331/3/4 334/3/4
f 329/3/4 330/3/4 334/3/4
f 334/3/4 331/3/4 335/3/4
f 335/3/4 331/3/4 336/3/4
f 337/4/4 338/4/4 339/4/4
f 339/4/4 338/4/4 340/4/4
f 327/5/4 328/5/4 341/5/4
f 341/5/4 328/5/4 342/5/4
f 343/5/4 344/5/4 349/5/4
f 344/4/4 345/4/4 349/4/4
f 345/5/4 346/5/4 350/5/4
f 349/4/4 345/4/4 350/4/4
f 343/5/4 349/5/4 351/5/4
f 351/5/4 349/5/4 352/5/4
f 352/5/4 349/5/4 353/5/4
f 350/5/4 346/5/4 355/5/4
f 351/3/4 352/3/4 356/3/4
f 356/3/4 352/3/4 357/3/4
f 354/3/4 355/3/4 359/3/4
f 355/5/4 346/5/4 360/5/4
f 359/3/4 355/3/4 360/3/4
f 357/5/4 358/5/4 361/5/4
f 356/5/4 357/5/4 361/5/4
f 360/5/4 346/5/4 362/5/4
f 356/5/4 361/5/4 363/5/4
f 361/4/4 362/4/4 364/4/4
f 363/5/4 361/5/4 364/5/4
f 362/5/4 346/5/4 365/5/4
f 364/4/4 362/4/4 365/4/4
f 365/5/4 346/5/4 366/5/4
f 347/5/4 348/5/4 367/5/4
f 367/5/4 348/5/4 368/5/4
f 373/5/5 370/5/5 369/5/5
f 374/3/5 371/3/5 370/3/5
f 374/5/5 370/5/5 373/5/5
f 375/5/5 372/5/5 371/5/5
f 375/3/5 371/3/5 374/3/5
f 376/5/5 372/5/5 375/5/5
f 377/3/5 374/3/5 373/3/5
f 378/3/5 374/3/5 377/3/5
f 379/3/5 376/3/5 375/3/5
f 380/3/5 376/3/5 379/3/5
f 381/5/5 378/5/5 377/5/5
f 382/3/5 379/3/5 378/3/5
f 382/5/5 378/5/5 381/5/5
f 383/5/5 380/5/5 379/5/5
f 383/3/5 379/3/5 382/3/5
f 384/5/5 380/5/5 383/5/5
f 387/3/5 386/3/5 385/3/5
f 388/3/5 386/3/5 387/3/5
f 393/3/5 390/3/5 389/3/5
f 394/3/5 390/3/5 393/3/5
f 395/3/5 392/3/5 391/3/5
f 396/3/5 392/3/5 395/3/5
f 399/3/5 398/3/5 397/3/5
f 400/3/5 398/3/5 399/3/5
f 406/5/5 402/5/5 401/5/5
f 407/5/5 404/5/5 403/5/5
f 409/5/5 406/5/5 405/5/5
f 410/5/5 402/5/5 406/5/5
f 410/5/5 406/5/5 409/5/5
f 411/5/5 408/5/5 407/5/5
f 411/5/5 407/5/5 403/5/5
f 412/5/5 408/5/5 411/5/5
f 414/5/5 411/5/5 410/5/5
f 415/5/5 411/5/5 414/5/5
f 417/5/5 414/5/5 413/5/5
f 418/5/5 414/5/5 417/5/5
f 419/5/5 416/5/5 415/5/5
f 420/5/5 416/5/5 419/5/5
f 421/5/5 414/5/5 418/5/5
f 422/5/5 414/5/5 421/5/5
f 423/5/5 419/5/5 415/5/5
f 424/5/5 419/5/5 423/5/5
f 427/5/5 426/5/5 425/5/5
f 428/5/5 426/5/5 427/5/5
f 429/5/5 426/5/5 428/5/5
f 430/5/5 426/5/5 429/5/5
f 431/5/5 427/5/5 425/5/5
f 432/2/5 429/2/5 428/2/5
f 433/2/5 429/2/5 432/2/5
f 434/5/5 426/5/5 430/5/5
f 435/5/5 431/5/5 425/5/5
f 435/2/5 432/2/5 431/2/5
f 436/2/5 432/2/5 435/2/5
f 437/2/5 434/2/5 433/2/5
f 438/5/5 426/5/5 434/5/5
f 438/2/5 434/2/5 437/2/5
f 439/5/5 435/5/5 425/5/5
f 440/2/5 437/2/5 436/2/5
f 441/2/5 437/2/5 440/2/5
f 442/5/5 426/5/5 438/5/5
f 443/5/5 441/5/5 440/5/5
f 443/5/5 442/5/5 441/5/5
f 443/5/5 439/5/5 425/5/5
f 443/5/5 440/5/5 439/5/5
f 444/5/5 426/5/5 442/5/5
f 444/5/5 442/5/5 443/5/5
f 447/6/5 446/6/5 445/6/5
f 448/6/5 446/6/5 447/6/5
f 449/3/6 450/3/6 451/3/6
f 451/3/6 450/3/6 452/3/6
f 453/3/6 454/3/6 457/3/6
f 457/3/6 454/3/6 458/3/6
f 455/3/6 456/3/6 459/3/6
f 459/3/6 456/3/6 460/3/6
f 461/3/6 462/3/6 463/3/6
f 463/3/6 462/3/6 464/3/6
f 465/5/6 466/5/6 470/5/6
f 470/5/6 466/5/6 471/5/6
f 467/5/6 468/5/6 472/5/6
f 472/5/6 468/5/6 473/5/6
f 470/5/6 471/5/6 475/5/6
f 469/5/6 470/5/6 475/5/6
f 475/5/6 471/5/6 476/5/6
f 476/5/6 471/5/6 477/5/6
f 473/5/6 474/5/6 478/5/6
f 472/5/6 473/5/6 478/5/6
f 478/5/6 474/5/6 479/5/6
f 479/5/6 474/5/6 480/5/6
f 481/5/6 482/5/6 487/5/6
f 482/5/6 483/5/6 487/5/6
f 487/5/6 483/5/6 488/5/6
f 488/5/6 483/5/6 489/5/6
f 485/5/6 486/5/6 490/5/6
f 484/5/6 485/5/6 490/5/6
f 490/5/6 486/5/6 491/5/6
f 491/5/6 486/5/6 492/5/6
f 488/5/6 489/5/6 493/5/6
f 493/5/6 489/5/6 494/5/6
f 490/5/6 491/5/6 495/5/6
f 495/5/6 491/5/6 496/5/6
f 497/5/6 498/5/6 500/5/6
f 500/5/6 498/5/6 501/5/6
f 499/5/6 500/5/6 503/5/6
f 501/5/6 502/5/6 503/5/6
f 500/5/6 501/5/6 503/5/6
f 503/5/6 502/5/6 504/5/6
f 504/5/6 502/5/6 505/5/6
f 505/5/6 502/5/6 506/5/6
f 504/5/6 505/5/6 507/5/6
f 507/5/6 505/5/6 508/5/6
f 509/5/6 510/5/6 511/5/6
f 511/5/6 510/5/6 512/5/6
f 512/5/6 510/5/6 513/5/6
f 513/5/6 510/5/6 514/5/6
f 509/5/6 511/5/6 515/5/6
f 514/5/6 510/5/6 516/5/6
f 509/5/6 515/5/6 517/5/6
f 516/5/6 510/5/6 518/5/6
f 509/5/6 517/5/6 519/5/6
f 518/5/6 510/5/6 522/5/6
f 520/5/6 521/5/6 523/5/6
f 521/5/6 522/5/6 523/5/6
f 509/5/6 519/5/6 523/5/6
f 519/5/6 520/5/6 523/5/6
f 522/5/6 510/5/6 524/5/6
f 523/5/6 522/5/6 524/5/6
f 525/5/6 526/5/6 527/5/6
f 527/5/6 526/5/6 528/5/6
f 525/5/6 527/5/6 529/5/6
f 528/5/6 526/5/6 530/5/6
f 525/5/6 529/5/6 531/5/6
f 529/5/6 530/5/6 531/5/6
f 530/5/6 526/5/6 532/5/6
f 531/5/6 530/5/6 532/5/6
f 533/5/6 534/5/6 535/5/6
f 535/5/6 534/5/6 536/5/6
f 533/5/6 535/5/6 537/5/6
f 535/6/6 536/6/6 537/6/6
f 536/5/6 534/5/6 538/5/6
f 537/6/6 536/6/6 538/6/6
f 533/5/6 537/5/6 539/5/6
f 537/5/6 538/5/6 539/5/6
f 538/5/6 534/5/6 540/5/6
f 539/5/6 538/5/6 540/5/6
