# MagicaVoxel @ Ephtracy

# group
o 

# material
mtllib Poison.mtl
usemtl palette

# normals
vn -1 0 0
vn 1 0 0
vn 0 0 1
vn 0 0 -1
vn 0 -1 0
vn 0 1 0

# texcoords
vt 0.955078 0.5
vt 0.958984 0.5
vt 0.962891 0.5
vt 0.990234 0.5

# verts
v -0.3 0 0.3
v -0.3 0 -0.3
v -0.3 0.1 0.1
v -0.3 0.1 -0.1
v -0.3 0.2 0.3
v -0.3 0.2 0.1
v -0.3 0.2 -0.1
v -0.3 0.2 -0.3
v -0.3 0.3 0.1
v -0.3 0.3 -0.1
v -0.3 0.4 0.3
v -0.3 0.4 0.1
v -0.3 0.4 -0.1
v -0.3 0.4 -0.3
v -0.3 0.5 0.1
v -0.3 0.5 -0.1
v -0.3 0.6 0.3
v -0.3 0.6 0.2
v -0.3 0.6 0.1
v -0.3 0.6 -0.1
v -0.3 0.6 -0.2
v -0.3 0.6 -0.3
v -0.3 0.8 0.3
v -0.3 0.8 0.2
v -0.3 0.8 -0.2
v -0.3 0.8 -0.3
v -0.3 0.9 0.3
v -0.3 0.9 0.2
v -0.3 0.9 -0.2
v -0.3 0.9 -0.3
v -0.2 0.1 0.1
v -0.2 0.1 -0.1
v -0.2 0.2 0.1
v -0.2 0.2 -0.1
v -0.2 0.3 0.1
v -0.2 0.3 -0.1
v -0.2 0.5 0.1
v -0.2 0.5 -0.1
v -0.2 0.6 0.1
v -0.2 0.6 -0.1
v -0.1 0.6 0.1
v -0.1 0.6 -0.1
v -0.1 0.8 0.1
v -0.1 0.8 -0.1
v 0.1 0.1 0.3
v 0.1 0.1 0.2
v 0.1 0.1 0.1
v 0.1 0.1 -0.1
v 0.1 0.1 -0.2
v 0.1 0.1 -0.3
v 0.1 0.2 0.3
v 0.1 0.2 0.2
v 0.1 0.2 -0.2
v 0.1 0.2 -0.3
v 0.1 0.3 0.3
v 0.1 0.3 0.2
v 0.1 0.3 -0.2
v 0.1 0.3 -0.3
v 0.1 0.4 0.1
v 0.1 0.4 -0.1
v 0.1 0.5 0.3
v 0.1 0.5 0.2
v 0.1 0.5 -0.2
v 0.1 0.5 -0.3
v 0.1 0.6 0.3
v 0.1 0.6 0.2
v 0.1 0.6 0.1
v 0.1 0.6 -0.1
v 0.1 0.6 -0.2
v 0.1 0.6 -0.3
v 0.2 0.6 0.3
v 0.2 0.6 0.2
v 0.2 0.6 -0.2
v 0.2 0.6 -0.3
v 0.2 0.8 0.3
v 0.2 0.8 0.2
v 0.2 0.8 -0.2
v 0.2 0.8 -0.3
v 0.2 0.9 0.3
v 0.2 0.9 0.2
v 0.2 0.9 -0.2
v 0.2 0.9 -0.3
v -0.2 0.6 0.3
v -0.2 0.6 0.2
v -0.2 0.6 -0.2
v -0.2 0.6 -0.3
v -0.2 0.8 0.3
v -0.2 0.8 0.2
v -0.2 0.8 -0.2
v -0.2 0.8 -0.3
v -0.2 0.9 0.3
v -0.2 0.9 0.2
v -0.2 0.9 -0.2
v -0.2 0.9 -0.3
v -0.1 0.1 0.3
v -0.1 0.1 0.2
v -0.1 0.1 0.1
v -0.1 0.1 -0.1
v -0.1 0.1 -0.2
v -0.1 0.1 -0.3
v -0.1 0.2 0.3
v -0.1 0.2 0.2
v -0.1 0.2 -0.2
v -0.1 0.2 -0.3
v -0.1 0.3 0.3
v -0.1 0.3 0.2
v -0.1 0.3 -0.2
v -0.1 0.3 -0.3
v -0.1 0.4 0.1
v -0.1 0.4 -0.1
v -0.1 0.5 0.3
v -0.1 0.5 0.2
v -0.1 0.5 -0.2
v -0.1 0.5 -0.3
v -0.1 0.6 0.3
v -0.1 0.6 0.2
v -0.1 0.6 0.1
v -0.1 0.6 -0.1
v -0.1 0.6 -0.2
v -0.1 0.6 -0.3
v 0.1 0.6 0.1
v 0.1 0.6 -0.1
v 0.1 0.8 0.1
v 0.1 0.8 -0.1
v 0.2 0.1 0.1
v 0.2 0.1 -0.1
v 0.2 0.2 0.1
v 0.2 0.2 -0.1
v 0.2 0.3 0.1
v 0.2 0.3 -0.1
v 0.2 0.5 0.1
v 0.2 0.5 -0.1
v 0.2 0.6 0.1
v 0.2 0.6 -0.1
v 0.3 0 0.3
v 0.3 0 -0.3
v 0.3 0.1 0.1
v 0.3 0.1 -0.1
v 0.3 0.2 0.3
v 0.3 0.2 0.1
v 0.3 0.2 -0.1
v 0.3 0.2 -0.3
v 0.3 0.3 0.1
v 0.3 0.3 -0.1
v 0.3 0.4 0.3
v 0.3 0.4 0.1
v 0.3 0.4 -0.1
v 0.3 0.4 -0.3
v 0.3 0.5 0.1
v 0.3 0.5 -0.1
v 0.3 0.6 0.3
v 0.3 0.6 0.2
v 0.3 0.6 0.1
v 0.3 0.6 -0.1
v 0.3 0.6 -0.2
v 0.3 0.6 -0.3
v 0.3 0.8 0.3
v 0.3 0.8 0.2
v 0.3 0.8 -0.2
v 0.3 0.8 -0.3
v 0.3 0.9 0.3
v 0.3 0.9 0.2
v 0.3 0.9 -0.2
v 0.3 0.9 -0.3
v -0.3 0 0.3
v -0.3 0.2 0.3
v -0.3 0.4 0.3
v -0.3 0.6 0.3
v -0.3 0.8 0.3
v -0.3 0.9 0.3
v -0.2 0.6 0.3
v -0.2 0.8 0.3
v -0.2 0.9 0.3
v -0.1 0.1 0.3
v -0.1 0.2 0.3
v -0.1 0.3 0.3
v -0.1 0.4 0.3
v -0.1 0.5 0.3
v -0.1 0.6 0.3
v 0.1 0.1 0.3
v 0.1 0.2 0.3
v 0.1 0.3 0.3
v 0.1 0.4 0.3
v 0.1 0.5 0.3
v 0.1 0.6 0.3
v 0.2 0.6 0.3
v 0.2 0.8 0.3
v 0.2 0.9 0.3
v 0.3 0 0.3
v 0.3 0.2 0.3
v 0.3 0.4 0.3
v 0.3 0.6 0.3
v 0.3 0.8 0.3
v 0.3 0.9 0.3
v -0.1 0.1 0.2
v -0.1 0.2 0.2
v -0.1 0.3 0.2
v -0.1 0.5 0.2
v -0.1 0.6 0.2
v 0.1 0.1 0.2
v 0.1 0.2 0.2
v 0.1 0.3 0.2
v 0.1 0.5 0.2
v 0.1 0.6 0.2
v -0.1 0.6 0.1
v -0.1 0.8 0.1
v 0.1 0.6 0.1
v 0.1 0.8 0.1
v -0.3 0.1 -0.1
v -0.3 0.2 -0.1
v -0.3 0.3 -0.1
v -0.3 0.5 -0.1
v -0.3 0.6 -0.1
v -0.2 0.1 -0.1
v -0.2 0.2 -0.1
v -0.2 0.3 -0.1
v -0.2 0.5 -0.1
v -0.2 0.6 -0.1
v -0.1 0.1 -0.1
v -0.1 0.4 -0.1
v -0.1 0.6 -0.1
v 0.1 0.1 -0.1
v 0.1 0.4 -0.1
v 0.1 0.6 -0.1
v 0.2 0.1 -0.1
v 0.2 0.2 -0.1
v 0.2 0.3 -0.1
v 0.2 0.5 -0.1
v 0.2 0.6 -0.1
v 0.3 0.1 -0.1
v 0.3 0.2 -0.1
v 0.3 0.3 -0.1
v 0.3 0.5 -0.1
v 0.3 0.6 -0.1
v -0.3 0.6 -0.2
v -0.3 0.8 -0.2
v -0.3 0.9 -0.2
v -0.2 0.6 -0.2
v -0.2 0.8 -0.2
v -0.2 0.9 -0.2
v 0.2 0.6 -0.2
v 0.2 0.8 -0.2
v 0.2 0.9 -0.2
v 0.3 0.6 -0.2
v 0.3 0.8 -0.2
v 0.3 0.9 -0.2
v -0.3 0.6 0.2
v -0.3 0.8 0.2
v -0.3 0.9 0.2
v -0.2 0.6 0.2
v -0.2 0.8 0.2
v -0.2 0.9 0.2
v 0.2 0.6 0.2
v 0.2 0.8 0.2
v 0.2 0.9 0.2
v 0.3 0.6 0.2
v 0.3 0.8 0.2
v 0.3 0.9 0.2
v -0.3 0.1 0.1
v -0.3 0.2 0.1
v -0.3 0.3 0.1
v -0.3 0.5 0.1
v -0.3 0.6 0.1
v -0.2 0.1 0.1
v -0.2 0.2 0.1
v -0.2 0.3 0.1
v -0.2 0.5 0.1
v -0.2 0.6 0.1
v -0.1 0.1 0.1
v -0.1 0.4 0.1
v -0.1 0.6 0.1
v 0.1 0.1 0.1
v 0.1 0.4 0.1
v 0.1 0.6 0.1
v 0.2 0.1 0.1
v 0.2 0.2 0.1
v 0.2 0.3 0.1
v 0.2 0.5 0.1
v 0.2 0.6 0.1
v 0.3 0.1 0.1
v 0.3 0.2 0.1
v 0.3 0.3 0.1
v 0.3 0.5 0.1
v 0.3 0.6 0.1
v -0.1 0.6 -0.1
v -0.1 0.8 -0.1
v 0.1 0.6 -0.1
v 0.1 0.8 -0.1
v -0.1 0.1 -0.2
v -0.1 0.2 -0.2
v -0.1 0.3 -0.2
v -0.1 0.5 -0.2
v -0.1 0.6 -0.2
v 0.1 0.1 -0.2
v 0.1 0.2 -0.2
v 0.1 0.3 -0.2
v 0.1 0.5 -0.2
v 0.1 0.6 -0.2
v -0.3 0 -0.3
v -0.3 0.2 -0.3
v -0.3 0.4 -0.3
v -0.3 0.6 -0.3
v -0.3 0.8 -0.3
v -0.3 0.9 -0.3
v -0.2 0.6 -0.3
v -0.2 0.8 -0.3
v -0.2 0.9 -0.3
v -0.1 0.1 -0.3
v -0.1 0.2 -0.3
v -0.1 0.3 -0.3
v -0.1 0.4 -0.3
v -0.1 0.5 -0.3
v -0.1 0.6 -0.3
v 0.1 0.1 -0.3
v 0.1 0.2 -0.3
v 0.1 0.3 -0.3
v 0.1 0.4 -0.3
v 0.1 0.5 -0.3
v 0.1 0.6 -0.3
v 0.2 0.6 -0.3
v 0.2 0.8 -0.3
v 0.2 0.9 -0.3
v 0.3 0 -0.3
v 0.3 0.2 -0.3
v 0.3 0.4 -0.3
v 0.3 0.6 -0.3
v 0.3 0.8 -0.3
v 0.3 0.9 -0.3
v -0.3 0 0.3
v 0.3 0 0.3
v -0.1 0 0.1
v 0.1 0 0.1
v -0.1 0 -0.1
v 0.1 0 -0.1
v -0.3 0 -0.3
v 0.3 0 -0.3
v -0.1 0.3 0.3
v 0.1 0.3 0.3
v -0.1 0.3 0.2
v 0.1 0.3 0.2
v -0.3 0.3 0.1
v -0.2 0.3 0.1
v 0.2 0.3 0.1
v 0.3 0.3 0.1
v -0.3 0.3 -0.1
v -0.2 0.3 -0.1
v 0.2 0.3 -0.1
v 0.3 0.3 -0.1
v -0.1 0.3 -0.2
v 0.1 0.3 -0.2
v -0.1 0.3 -0.3
v 0.1 0.3 -0.3
v -0.1 0.6 0.1
v 0.1 0.6 0.1
v -0.1 0.6 -0.1
v 0.1 0.6 -0.1
v -0.1 0.1 0.3
v 0.1 0.1 0.3
v -0.1 0.1 0.2
v 0.1 0.1 0.2
v -0.3 0.1 0.1
v -0.2 0.1 0.1
v -0.1 0.1 0.1
v 0.1 0.1 0.1
v 0.2 0.1 0.1
v 0.3 0.1 0.1
v -0.3 0.1 -0.1
v -0.2 0.1 -0.1
v -0.1 0.1 -0.1
v 0.1 0.1 -0.1
v 0.2 0.1 -0.1
v 0.3 0.1 -0.1
v -0.1 0.1 -0.2
v 0.1 0.1 -0.2
v -0.1 0.1 -0.3
v 0.1 0.1 -0.3
v -0.1 0.5 0.3
v 0.1 0.5 0.3
v -0.1 0.5 0.2
v 0.1 0.5 0.2
v -0.3 0.5 0.1
v -0.2 0.5 0.1
v 0.2 0.5 0.1
v 0.3 0.5 0.1
v -0.3 0.5 -0.1
v -0.2 0.5 -0.1
v 0.2 0.5 -0.1
v 0.3 0.5 -0.1
v -0.1 0.5 -0.2
v 0.1 0.5 -0.2
v -0.1 0.5 -0.3
v 0.1 0.5 -0.3
v -0.2 0.6 0.3
v -0.1 0.6 0.3
v 0.1 0.6 0.3
v 0.2 0.6 0.3
v -0.3 0.6 0.2
v -0.2 0.6 0.2
v -0.1 0.6 0.2
v 0.1 0.6 0.2
v 0.2 0.6 0.2
v 0.3 0.6 0.2
v -0.3 0.6 0.1
v -0.2 0.6 0.1
v -0.1 0.6 0.1
v 0.1 0.6 0.1
v 0.2 0.6 0.1
v 0.3 0.6 0.1
v -0.3 0.6 -0.1
v -0.2 0.6 -0.1
v -0.1 0.6 -0.1
v 0.1 0.6 -0.1
v 0.2 0.6 -0.1
v 0.3 0.6 -0.1
v -0.3 0.6 -0.2
v -0.2 0.6 -0.2
v -0.1 0.6 -0.2
v 0.1 0.6 -0.2
v 0.2 0.6 -0.2
v 0.3 0.6 -0.2
v -0.2 0.6 -0.3
v -0.1 0.6 -0.3
v 0.1 0.6 -0.3
v 0.2 0.6 -0.3
v -0.1 0.8 0.1
v 0.1 0.8 0.1
v -0.1 0.8 -0.1
v 0.1 0.8 -0.1
v -0.3 0.9 0.3
v -0.2 0.9 0.3
v 0.2 0.9 0.3
v 0.3 0.9 0.3
v -0.3 0.9 0.2
v -0.2 0.9 0.2
v 0.2 0.9 0.2
v 0.3 0.9 0.2
v -0.3 0.9 -0.2
v -0.2 0.9 -0.2
v 0.2 0.9 -0.2
v 0.3 0.9 -0.2
v -0.3 0.9 -0.3
v -0.2 0.9 -0.3
v 0.2 0.9 -0.3
v 0.3 0.9 -0.3

# faces
f 3/1/1 2/1/1 1/1/1
f 4/1/1 2/1/1 3/1/1
f 5/1/1 3/1/1 1/1/1
f 6/1/1 3/1/1 5/1/1
f 7/1/1 2/1/1 4/1/1
f 8/1/1 2/1/1 7/1/1
f 9/2/1 6/2/1 5/2/1
f 10/2/1 8/2/1 7/2/1
f 11/2/1 9/2/1 5/2/1
f 12/1/1 10/1/1 9/1/1
f 12/2/1 9/2/1 11/2/1
f 13/2/1 8/2/1 10/2/1
f 13/1/1 10/1/1 12/1/1
f 14/2/1 8/2/1 13/2/1
f 15/1/1 12/1/1 11/1/1
f 15/2/1 13/2/1 12/2/1
f 16/1/1 14/1/1 13/1/1
f 16/2/1 13/2/1 15/2/1
f 17/1/1 15/1/1 11/1/1
f 18/1/1 15/1/1 17/1/1
f 19/1/1 15/1/1 18/1/1
f 20/1/1 14/1/1 16/1/1
f 21/1/1 14/1/1 20/1/1
f 22/1/1 14/1/1 21/1/1
f 23/2/1 18/2/1 17/2/1
f 24/2/1 18/2/1 23/2/1
f 25/2/1 22/2/1 21/2/1
f 26/2/1 22/2/1 25/2/1
f 27/3/1 24/3/1 23/3/1
f 28/3/1 24/3/1 27/3/1
f 29/3/1 26/3/1 25/3/1
f 30/3/1 26/3/1 29/3/1
f 33/1/1 32/1/1 31/1/1
f 34/1/1 32/1/1 33/1/1
f 35/1/1 34/1/1 33/1/1
f 36/1/1 34/1/1 35/1/1
f 39/2/1 38/2/1 37/2/1
f 40/2/1 38/2/1 39/2/1
f 43/3/1 42/3/1 41/3/1
f 44/3/1 42/3/1 43/3/1
f 51/1/1 46/1/1 45/1/1
f 52/1/1 46/1/1 51/1/1
f 53/1/1 50/1/1 49/1/1
f 54/1/1 50/1/1 53/1/1
f 55/2/1 52/2/1 51/2/1
f 56/2/1 52/2/1 55/2/1
f 57/2/1 54/2/1 53/2/1
f 58/2/1 54/2/1 57/2/1
f 59/1/1 48/1/1 47/1/1
f 60/1/1 48/1/1 59/1/1
f 65/1/1 62/1/1 61/1/1
f 66/1/1 62/1/1 65/1/1
f 67/2/1 60/2/1 59/2/1
f 68/2/1 60/2/1 67/2/1
f 69/1/1 64/1/1 63/1/1
f 70/1/1 64/1/1 69/1/1
f 75/2/1 72/2/1 71/2/1
f 76/2/1 72/2/1 75/2/1
f 77/2/1 74/2/1 73/2/1
f 78/2/1 74/2/1 77/2/1
f 79/3/1 76/3/1 75/3/1
f 80/3/1 76/3/1 79/3/1
f 81/3/1 78/3/1 77/3/1
f 82/3/1 78/3/1 81/3/1
f 83/2/2 84/2/2 87/2/2
f 87/2/2 84/2/2 88/2/2
f 85/2/2 86/2/2 89/2/2
f 89/2/2 86/2/2 90/2/2
f 87/3/2 88/3/2 91/3/2
f 91/3/2 88/3/2 92/3/2
f 89/3/2 90/3/2 93/3/2
f 93/3/2 90/3/2 94/3/2
f 95/1/2 96/1/2 101/1/2
f 101/1/2 96/1/2 102/1/2
f 99/1/2 100/1/2 103/1/2
f 103/1/2 100/1/2 104/1/2
f 101/2/2 102/2/2 105/2/2
f 105/2/2 102/2/2 106/2/2
f 103/2/2 104/2/2 107/2/2
f 107/2/2 104/2/2 108/2/2
f 97/1/2 98/1/2 109/1/2
f 109/1/2 98/1/2 110/1/2
f 111/1/2 112/1/2 115/1/2
f 115/1/2 112/1/2 116/1/2
f 109/2/2 110/2/2 117/2/2
f 117/2/2 110/2/2 118/2/2
f 113/1/2 114/1/2 119/1/2
f 119/1/2 114/1/2 120/1/2
f 121/3/2 122/3/2 123/3/2
f 123/3/2 122/3/2 124/3/2
f 125/1/2 126/1/2 127/1/2
f 127/1/2 126/1/2 128/1/2
f 127/1/2 128/1/2 129/1/2
f 129/1/2 128/1/2 130/1/2
f 131/2/2 132/2/2 133/2/2
f 133/2/2 132/2/2 134/2/2
f 135/1/2 136/1/2 137/1/2
f 137/1/2 136/1/2 138/1/2
f 135/1/2 137/1/2 139/1/2
f 139/1/2 137/1/2 140/1/2
f 138/1/2 136/1/2 141/1/2
f 141/1/2 136/1/2 142/1/2
f 139/2/2 140/2/2 143/2/2
f 141/2/2 142/2/2 144/2/2
f 139/2/2 143/2/2 145/2/2
f 143/1/2 144/1/2 146/1/2
f 145/2/2 143/2/2 146/2/2
f 144/2/2 142/2/2 147/2/2
f 146/1/2 144/1/2 147/1/2
f 147/2/2 142/2/2 148/2/2
f 145/1/2 146/1/2 149/1/2
f 146/2/2 147/2/2 149/2/2
f 147/1/2 148/1/2 150/1/2
f 149/2/2 147/2/2 150/2/2
f 145/1/2 149/1/2 151/1/2
f 151/1/2 149/1/2 152/1/2
f 152/1/2 149/1/2 153/1/2
f 150/1/2 148/1/2 154/1/2
f 154/1/2 148/1/2 155/1/2
f 155/1/2 148/1/2 156/1/2
f 151/2/2 152/2/2 157/2/2
f 157/2/2 152/2/2 158/2/2
f 155/2/2 156/2/2 159/2/2
f 159/2/2 156/2/2 160/2/2
f 157/3/2 158/3/2 161/3/2
f 161/3/2 158/3/2 162/3/2
f 159/3/2 160/3/2 163/3/2
f 163/3/2 160/3/2 164/3/2
f 171/1/3 168/1/3 167/1/3
f 171/2/3 169/2/3 168/2/3
f 172/3/3 170/3/3 169/3/3
f 172/2/3 169/2/3 171/2/3
f 173/3/3 170/3/3 172/3/3
f 174/1/3 166/1/3 165/1/3
f 175/2/3 167/2/3 166/2/3
f 175/1/3 166/1/3 174/1/3
f 176/2/3 167/2/3 175/2/3
f 177/1/3 171/1/3 167/1/3
f 177/2/3 167/2/3 176/2/3
f 178/1/3 171/1/3 177/1/3
f 179/1/3 171/1/3 178/1/3
f 180/1/3 174/1/3 165/1/3
f 182/1/3 177/1/3 176/1/3
f 183/2/3 178/2/3 177/2/3
f 183/1/3 177/1/3 182/1/3
f 184/2/3 178/2/3 183/2/3
f 186/1/3 184/1/3 183/1/3
f 186/1/3 185/1/3 184/1/3
f 189/1/3 181/1/3 180/1/3
f 189/1/3 180/1/3 165/1/3
f 190/2/3 182/2/3 181/2/3
f 190/1/3 181/1/3 189/1/3
f 190/2/3 183/2/3 182/2/3
f 191/1/3 186/1/3 183/1/3
f 191/2/3 183/2/3 190/2/3
f 192/2/3 187/2/3 186/2/3
f 192/1/3 186/1/3 191/1/3
f 193/3/3 188/3/3 187/3/3
f 193/2/3 187/2/3 192/2/3
f 194/3/3 188/3/3 193/3/3
f 200/1/3 196/1/3 195/1/3
f 200/1/3 197/1/3 196/1/3
f 201/1/3 197/1/3 200/1/3
f 202/1/3 197/1/3 201/1/3
f 203/2/3 199/2/3 198/2/3
f 204/2/3 199/2/3 203/2/3
f 207/3/3 206/3/3 205/3/3
f 208/3/3 206/3/3 207/3/3
f 214/1/3 210/1/3 209/1/3
f 215/2/3 211/2/3 210/2/3
f 215/1/3 210/1/3 214/1/3
f 216/2/3 211/2/3 215/2/3
f 217/1/3 213/1/3 212/1/3
f 218/1/3 213/1/3 217/1/3
f 222/1/3 220/1/3 219/1/3
f 223/2/3 221/2/3 220/2/3
f 223/1/3 220/1/3 222/1/3
f 224/2/3 221/2/3 223/2/3
f 230/1/3 226/1/3 225/1/3
f 231/2/3 227/2/3 226/2/3
f 231/1/3 226/1/3 230/1/3
f 232/2/3 227/2/3 231/2/3
f 233/1/3 229/1/3 228/1/3
f 234/1/3 229/1/3 233/1/3
f 238/2/3 236/2/3 235/2/3
f 239/3/3 237/3/3 236/3/3
f 239/2/3 236/2/3 238/2/3
f 240/3/3 237/3/3 239/3/3
f 244/2/3 242/2/3 241/2/3
f 245/3/3 243/3/3 242/3/3
f 245/2/3 242/2/3 244/2/3
f 246/3/3 243/3/3 245/3/3
f 247/2/4 248/2/4 250/2/4
f 248/3/4 249/3/4 251/3/4
f 250/2/4 248/2/4 251/2/4
f 251/3/4 249/3/4 252/3/4
f 253/2/4 254/2/4 256/2/4
f 254/3/4 255/3/4 257/3/4
f 256/2/4 254/2/4 257/2/4
f 257/3/4 255/3/4 258/3/4
f 259/1/4 260/1/4 264/1/4
f 260/2/4 261/2/4 265/2/4
f 264/1/4 260/1/4 265/1/4
f 265/2/4 261/2/4 266/2/4
f 262/1/4 263/1/4 267/1/4
f 267/1/4 263/1/4 268/1/4
f 269/1/4 270/1/4 272/1/4
f 270/2/4 271/2/4 273/2/4
f 272/1/4 270/1/4 273/1/4
f 273/2/4 271/2/4 274/2/4
f 275/1/4 276/1/4 280/1/4
f 276/2/4 277/2/4 281/2/4
f 280/1/4 276/1/4 281/1/4
f 281/2/4 277/2/4 282/2/4
f 278/1/4 279/1/4 283/1/4
f 283/1/4 279/1/4 284/1/4
f 285/3/4 286/3/4 287/3/4
f 287/3/4 286/3/4 288/3/4
f 289/1/4 290/1/4 294/1/4
f 290/1/4 291/1/4 294/1/4
f 294/1/4 291/1/4 295/1/4
f 295/1/4 291/1/4 296/1/4
f 292/2/4 293/2/4 297/2/4
f 297/2/4 293/2/4 298/2/4
f 301/1/4 302/1/4 305/1/4
f 302/2/4 303/2/4 305/2/4
f 303/3/4 304/3/4 306/3/4
f 305/2/4 303/2/4 306/2/4
f 306/3/4 304/3/4 307/3/4
f 299/1/4 300/1/4 308/1/4
f 300/2/4 301/2/4 309/2/4
f 308/1/4 300/1/4 309/1/4
f 309/2/4 301/2/4 310/2/4
f 301/1/4 305/1/4 311/1/4
f 310/2/4 301/2/4 311/2/4
f 311/1/4 305/1/4 312/1/4
f 312/1/4 305/1/4 313/1/4
f 299/1/4 308/1/4 314/1/4
f 310/1/4 311/1/4 316/1/4
f 311/2/4 312/2/4 317/2/4
f 316/1/4 311/1/4 317/1/4
f 317/2/4 312/2/4 318/2/4
f 317/1/4 318/1/4 320/1/4
f 318/1/4 319/1/4 320/1/4
f 314/1/4 315/1/4 323/1/4
f 299/1/4 314/1/4 323/1/4
f 315/2/4 316/2/4 324/2/4
f 323/1/4 315/1/4 324/1/4
f 316/2/4 317/2/4 324/2/4
f 317/1/4 320/1/4 325/1/4
f 324/2/4 317/2/4 325/2/4
f 320/2/4 321/2/4 326/2/4
f 325/1/4 320/1/4 326/1/4
f 321/3/4 322/3/4 327/3/4
f 326/2/4 321/2/4 327/2/4
f 327/3/4 322/3/4 328/3/4
f 331/1/5 330/1/5 329/1/5
f 332/1/5 330/1/5 331/1/5
f 333/1/5 331/1/5 329/1/5
f 333/4/5 332/4/5 331/4/5
f 334/1/5 330/1/5 332/1/5
f 334/4/5 332/4/5 333/4/5
f 335/1/5 333/1/5 329/1/5
f 335/1/5 334/1/5 333/1/5
f 336/1/5 330/1/5 334/1/5
f 336/1/5 334/1/5 335/1/5
f 339/1/5 338/1/5 337/1/5
f 340/1/5 338/1/5 339/1/5
f 345/1/5 342/1/5 341/1/5
f 346/1/5 342/1/5 345/1/5
f 347/1/5 344/1/5 343/1/5
f 348/1/5 344/1/5 347/1/5
f 351/1/5 350/1/5 349/1/5
f 352/1/5 350/1/5 351/1/5
f 355/3/5 354/3/5 353/3/5
f 356/3/5 354/3/5 355/3/5
f 357/1/6 358/1/6 359/1/6
f 359/1/6 358/1/6 360/1/6
f 361/1/6 362/1/6 367/1/6
f 367/1/6 362/1/6 368/1/6
f 363/4/6 364/4/6 369/4/6
f 369/4/6 364/4/6 370/4/6
f 365/1/6 366/1/6 371/1/6
f 371/1/6 366/1/6 372/1/6
f 373/1/6 374/1/6 375/1/6
f 375/1/6 374/1/6 376/1/6
f 377/2/6 378/2/6 379/2/6
f 379/2/6 378/2/6 380/2/6
f 381/2/6 382/2/6 385/2/6
f 385/2/6 382/2/6 386/2/6
f 383/2/6 384/2/6 387/2/6
f 387/2/6 384/2/6 388/2/6
f 389/2/6 390/2/6 391/2/6
f 391/2/6 390/2/6 392/2/6
f 393/1/6 394/1/6 398/1/6
f 398/1/6 394/1/6 399/1/6
f 395/1/6 396/1/6 400/1/6
f 400/1/6 396/1/6 401/1/6
f 398/1/6 399/1/6 403/1/6
f 397/1/6 398/1/6 403/1/6
f 403/1/6 399/1/6 404/1/6
f 399/2/6 400/2/6 405/2/6
f 404/1/6 399/1/6 405/1/6
f 401/1/6 402/1/6 406/1/6
f 405/2/6 400/2/6 406/2/6
f 400/1/6 401/1/6 406/1/6
f 406/1/6 402/1/6 407/1/6
f 407/1/6 402/1/6 408/1/6
f 404/2/6 405/2/6 410/2/6
f 410/2/6 405/2/6 411/2/6
f 406/2/6 407/2/6 412/2/6
f 412/2/6 407/2/6 413/2/6
f 410/1/6 411/1/6 415/1/6
f 409/1/6 410/1/6 415/1/6
f 415/1/6 411/1/6 416/1/6
f 411/2/6 412/2/6 417/2/6
f 416/1/6 411/1/6 417/1/6
f 413/1/6 414/1/6 418/1/6
f 417/2/6 412/2/6 418/2/6
f 412/1/6 413/1/6 418/1/6
f 418/1/6 414/1/6 419/1/6
f 419/1/6 414/1/6 420/1/6
f 416/1/6 417/1/6 421/1/6
f 421/1/6 417/1/6 422/1/6
f 418/1/6 419/1/6 423/1/6
f 423/1/6 419/1/6 424/1/6
f 425/3/6 426/3/6 427/3/6
f 427/3/6 426/3/6 428/3/6
f 429/3/6 430/3/6 433/3/6
f 433/3/6 430/3/6 434/3/6
f 431/3/6 432/3/6 435/3/6
f 435/3/6 432/3/6 436/3/6
f 437/3/6 438/3/6 441/3/6
f 441/3/6 438/3/6 442/3/6
f 439/3/6 440/3/6 443/3/6
f 443/3/6 440/3/6 444/3/6
