# MagicaVoxel @ Ephtracy

# group
o 

# material
mtllib TowerCell.mtl
usemtl palette

# normals
vn -1 0 0
vn 1 0 0
vn 0 0 1
vn 0 0 -1
vn 0 -1 0
vn 0 1 0

# texcoords
vt 0.974609 0.5
vt 0.978516 0.5
vt 0.986328 0.5

# verts
v -0.5 0 0.5
v -0.5 0 -0.5
v -0.5 0.1 0.5
v -0.5 0.1 -0.5
v -0.4 0.1 0.4
v -0.4 0.1 -0.4
v -0.4 0.2 0.4
v -0.4 0.2 -0.4
v 0.3 0 0.3
v 0.3 0 -0.3
v 0.3 0.1 0.3
v 0.3 0.1 0.1
v 0.3 0.1 -0.1
v 0.3 0.1 -0.3
v -0.3 0 0.3
v -0.3 0 -0.3
v -0.3 0.1 0.3
v -0.3 0.1 0.1
v -0.3 0.1 -0.1
v -0.3 0.1 -0.3
v 0.4 0.1 0.4
v 0.4 0.1 -0.4
v 0.4 0.2 0.4
v 0.4 0.2 -0.4
v 0.5 0 0.5
v 0.5 0 -0.5
v 0.5 0.1 0.5
v 0.5 0.1 -0.5
v -0.5 0 0.5
v -0.5 0.1 0.5
v 0.5 0 0.5
v 0.5 0.1 0.5
v -0.4 0.1 0.4
v -0.4 0.2 0.4
v 0.4 0.1 0.4
v 0.4 0.2 0.4
v -0.3 0 -0.3
v -0.3 0.1 -0.3
v -0.1 0.1 -0.3
v 0.1 0.1 -0.3
v 0.3 0 -0.3
v 0.3 0.1 -0.3
v -0.3 0 0.3
v -0.3 0.1 0.3
v -0.1 0.1 0.3
v 0.1 0.1 0.3
v 0.3 0 0.3
v 0.3 0.1 0.3
v -0.4 0.1 -0.4
v -0.4 0.2 -0.4
v 0.4 0.1 -0.4
v 0.4 0.2 -0.4
v -0.5 0 -0.5
v -0.5 0.1 -0.5
v 0.5 0 -0.5
v 0.5 0.1 -0.5
v -0.5 0 0.5
v 0.5 0 0.5
v -0.3 0 0.3
v 0.3 0 0.3
v -0.3 0 -0.3
v 0.3 0 -0.3
v -0.5 0 -0.5
v 0.5 0 -0.5
v -0.3 0.1 0.3
v -0.1 0.1 0.3
v 0.1 0.1 0.3
v 0.3 0.1 0.3
v -0.3 0.1 0.1
v -0.1 0.1 0.1
v 0.1 0.1 0.1
v 0.3 0.1 0.1
v -0.3 0.1 -0.1
v -0.1 0.1 -0.1
v 0.1 0.1 -0.1
v 0.3 0.1 -0.1
v -0.3 0.1 -0.3
v -0.1 0.1 -0.3
v 0.1 0.1 -0.3
v 0.3 0.1 -0.3
v -0.5 0.1 0.5
v 0.5 0.1 0.5
v -0.4 0.1 0.4
v 0.4 0.1 0.4
v -0.4 0.1 -0.4
v 0.4 0.1 -0.4
v -0.5 0.1 -0.5
v 0.5 0.1 -0.5
v -0.4 0.2 0.4
v 0.4 0.2 0.4
v -0.3 0.2 0.3
v -0.1 0.2 0.3
v 0.1 0.2 0.3
v 0.3 0.2 0.3
v -0.3 0.2 0.1
v -0.1 0.2 0.1
v 0.1 0.2 0.1
v 0.3 0.2 0.1
v -0.3 0.2 -0.1
v -0.1 0.2 -0.1
v 0.1 0.2 -0.1
v 0.3 0.2 -0.1
v -0.3 0.2 -0.3
v -0.1 0.2 -0.3
v 0.1 0.2 -0.3
v 0.3 0.2 -0.3
v -0.4 0.2 -0.4
v 0.4 0.2 -0.4

# faces
f 3/3/1 2/3/1 1/3/1
f 4/3/1 2/3/1 3/3/1
f 7/3/1 6/3/1 5/3/1
f 8/3/1 6/3/1 7/3/1
f 11/3/1 10/3/1 9/3/1
f 12/3/1 10/3/1 11/3/1
f 13/3/1 10/3/1 12/3/1
f 14/3/1 10/3/1 13/3/1
f 15/3/2 16/3/2 17/3/2
f 17/3/2 16/3/2 18/3/2
f 18/3/2 16/3/2 19/3/2
f 19/3/2 16/3/2 20/3/2
f 21/3/2 22/3/2 23/3/2
f 23/3/2 22/3/2 24/3/2
f 25/3/2 26/3/2 27/3/2
f 27/3/2 26/3/2 28/3/2
f 31/3/3 30/3/3 29/3/3
f 32/3/3 30/3/3 31/3/3
f 35/3/3 34/3/3 33/3/3
f 36/3/3 34/3/3 35/3/3
f 39/3/3 38/3/3 37/3/3
f 40/3/3 39/3/3 37/3/3
f 41/3/3 40/3/3 37/3/3
f 42/3/3 40/3/3 41/3/3
f 43/3/4 44/3/4 45/3/4
f 43/3/4 45/3/4 46/3/4
f 43/3/4 46/3/4 47/3/4
f 47/3/4 46/3/4 48/3/4
f 49/3/4 50/3/4 51/3/4
f 51/3/4 50/3/4 52/3/4
f 53/3/4 54/3/4 55/3/4
f 55/3/4 54/3/4 56/3/4
f 59/3/5 58/3/5 57/3/5
f 60/3/5 58/3/5 59/3/5
f 61/3/5 59/3/5 57/3/5
f 62/3/5 58/3/5 60/3/5
f 63/3/5 61/3/5 57/3/5
f 63/3/5 62/3/5 61/3/5
f 64/3/5 58/3/5 62/3/5
f 64/3/5 62/3/5 63/3/5
f 69/2/5 66/2/5 65/2/5
f 70/1/5 67/1/5 66/1/5
f 70/2/5 66/2/5 69/2/5
f 71/2/5 68/2/5 67/2/5
f 71/1/5 67/1/5 70/1/5
f 72/2/5 68/2/5 71/2/5
f 73/1/5 70/1/5 69/1/5
f 74/2/5 71/2/5 70/2/5
f 74/1/5 70/1/5 73/1/5
f 75/1/5 72/1/5 71/1/5
f 75/2/5 71/2/5 74/2/5
f 76/1/5 72/1/5 75/1/5
f 77/2/5 74/2/5 73/2/5
f 78/1/5 75/1/5 74/1/5
f 78/2/5 74/2/5 77/2/5
f 79/2/5 76/2/5 75/2/5
f 79/1/5 75/1/5 78/1/5
f 80/2/5 76/2/5 79/2/5
f 81/3/6 82/3/6 83/3/6
f 83/3/6 82/3/6 84/3/6
f 81/3/6 83/3/6 85/3/6
f 84/3/6 82/3/6 86/3/6
f 81/3/6 85/3/6 87/3/6
f 85/3/6 86/3/6 87/3/6
f 86/3/6 82/3/6 88/3/6
f 87/3/6 86/3/6 88/3/6
f 89/3/6 90/3/6 91/3/6
f 91/3/6 90/3/6 92/3/6
f 92/3/6 90/3/6 93/3/6
f 93/3/6 90/3/6 94/3/6
f 89/3/6 91/3/6 95/3/6
f 91/2/6 92/2/6 95/2/6
f 92/1/6 93/1/6 96/1/6
f 95/2/6 92/2/6 96/2/6
f 93/2/6 94/2/6 97/2/6
f 96/1/6 93/1/6 97/1/6
f 94/3/6 90/3/6 98/3/6
f 97/2/6 94/2/6 98/2/6
f 95/1/6 96/1/6 99/1/6
f 89/3/6 95/3/6 99/3/6
f 96/2/6 97/2/6 100/2/6
f 99/1/6 96/1/6 100/1/6
f 97/1/6 98/1/6 101/1/6
f 100/2/6 97/2/6 101/2/6
f 98/3/6 90/3/6 102/3/6
f 101/1/6 98/1/6 102/1/6
f 89/3/6 99/3/6 103/3/6
f 99/2/6 100/2/6 103/2/6
f 100/1/6 101/1/6 104/1/6
f 103/2/6 100/2/6 104/2/6
f 101/2/6 102/2/6 105/2/6
f 104/1/6 101/1/6 105/1/6
f 102/3/6 90/3/6 106/3/6
f 105/2/6 102/2/6 106/2/6
f 104/3/6 105/3/6 107/3/6
f 89/3/6 103/3/6 107/3/6
f 105/3/6 106/3/6 107/3/6
f 103/3/6 104/3/6 107/3/6
f 106/3/6 90/3/6 108/3/6
f 107/3/6 106/3/6 108/3/6
