# MagicaVoxel @ Ephtracy

# group
o 

# material
mtllib Skeleton.mtl
usemtl palette

# normals
vn -1 0 0
vn 1 0 0
vn 0 0 1
vn 0 0 -1
vn 0 -1 0
vn 0 1 0

# texcoords
vt 0.962891 0.5
vt 0.966797 0.5

# verts
v -0.3 0.5 0.1
v -0.3 0.5 0
v -0.3 0.7 0.1
v -0.3 0.7 0
v -0.3 0.8 0.1
v -0.3 0.8 0
v -0.3 1 0.1
v -0.3 1 0
v -0.2 0 0.1
v -0.2 0 0
v -0.2 0.1 0.1
v -0.2 0.1 0
v -0.2 0.3 0.1
v -0.2 0.3 0
v -0.2 0.5 0.1
v -0.2 0.5 0
v -0.2 1 0.2
v -0.2 1 0.1
v -0.2 1 0
v -0.2 1 -0.1
v -0.2 1.2 0.2
v -0.2 1.2 0.1
v -0.2 1.3 0.2
v -0.2 1.3 0.1
v -0.2 1.3 -0.1
v -0.1 0.5 0.1
v -0.1 0.5 0
v -0.1 0.6 0.1
v -0.1 0.6 0
v -0.1 0.7 0.1
v -0.1 0.7 0
v -0.1 0.8 0.1
v -0.1 0.8 0
v -0.1 0.9 0.1
v -0.1 0.9 0
v 0 0 0.1
v 0 0 0
v 0 0.3 0.1
v 0 0.3 0
v 0 0.4 0.1
v 0 0.4 0
v 0.1 0.5 0.1
v 0.1 0.5 0
v 0.1 0.7 0.1
v 0.1 0.7 0
v 0.1 0.8 0.1
v 0.1 0.8 0
v 0.1 0.9 0.1
v 0.1 0.9 0
v -0.2 0.5 0.1
v -0.2 0.5 0
v -0.2 0.7 0.1
v -0.2 0.7 0
v -0.2 0.8 0.1
v -0.2 0.8 0
v -0.2 0.9 0.1
v -0.2 0.9 0
v -0.1 0 0.1
v -0.1 0 0
v -0.1 0.1 0.1
v -0.1 0.1 0
v -0.1 0.3 0.1
v -0.1 0.3 0
v -0.1 0.4 0.1
v -0.1 0.4 0
v 0 0.5 0.1
v 0 0.5 0
v 0 0.6 0.1
v 0 0.6 0
v 0 0.7 0.1
v 0 0.7 0
v 0 0.8 0.1
v 0 0.8 0
v 0 0.9 0.1
v 0 0.9 0
v 0.1 0 0.1
v 0.1 0 0
v 0.1 0.3 0.1
v 0.1 0.3 0
v 0.1 0.5 0.1
v 0.1 0.5 0
v 0.1 1 0.2
v 0.1 1 0.1
v 0.1 1 0
v 0.1 1 -0.1
v 0.1 1.1 0.1
v 0.1 1.1 0
v 0.1 1.2 0.2
v 0.1 1.2 0
v 0.1 1.2 -0.1
v 0.1 1.3 0.2
v 0.1 1.3 0
v 0.1 1.3 -0.1
v 0.2 0.5 0.1
v 0.2 0.5 0
v 0.2 1 0.1
v 0.2 1 0
v -0.2 1 0.2
v -0.2 1.2 0.2
v -0.2 1.3 0.2
v 0 1 0.2
v 0 1.2 0.2
v 0 1.3 0.2
v 0.1 1 0.2
v 0.1 1.2 0.2
v 0.1 1.3 0.2
v -0.3 0.5 0.1
v -0.3 0.7 0.1
v -0.3 0.8 0.1
v -0.3 1 0.1
v -0.2 0 0.1
v -0.2 0.1 0.1
v -0.2 0.3 0.1
v -0.2 0.5 0.1
v -0.2 0.7 0.1
v -0.2 0.8 0.1
v -0.2 0.9 0.1
v -0.2 1 0.1
v -0.1 0 0.1
v -0.1 0.1 0.1
v -0.1 0.3 0.1
v -0.1 0.4 0.1
v -0.1 0.5 0.1
v -0.1 0.6 0.1
v -0.1 0.7 0.1
v -0.1 0.8 0.1
v -0.1 0.9 0.1
v 0 0 0.1
v 0 0.3 0.1
v 0 0.4 0.1
v 0 0.5 0.1
v 0 0.6 0.1
v 0 0.7 0.1
v 0 0.8 0.1
v 0 0.9 0.1
v 0 1 0.1
v 0.1 0 0.1
v 0.1 0.3 0.1
v 0.1 0.5 0.1
v 0.1 0.7 0.1
v 0.1 0.8 0.1
v 0.1 0.9 0.1
v 0.1 1 0.1
v 0.2 0.5 0.1
v 0.2 1 0.1
v -0.3 0.5 0
v -0.3 0.7 0
v -0.3 0.8 0
v -0.3 1 0
v -0.2 0 0
v -0.2 0.1 0
v -0.2 0.3 0
v -0.2 0.5 0
v -0.2 0.7 0
v -0.2 0.8 0
v -0.2 0.9 0
v -0.2 1 0
v -0.1 0 0
v -0.1 0.1 0
v -0.1 0.3 0
v -0.1 0.4 0
v -0.1 0.5 0
v -0.1 0.6 0
v -0.1 0.7 0
v -0.1 0.8 0
v -0.1 0.9 0
v 0 0 0
v 0 0.3 0
v 0 0.4 0
v 0 0.5 0
v 0 0.6 0
v 0 0.7 0
v 0 0.8 0
v 0 0.9 0
v 0.1 0 0
v 0.1 0.3 0
v 0.1 0.5 0
v 0.1 0.7 0
v 0.1 0.8 0
v 0.1 0.9 0
v 0.1 1 0
v 0.2 0.5 0
v 0.2 1 0
v -0.2 1 -0.1
v -0.2 1.3 -0.1
v -0.1 1.2 -0.1
v -0.1 1.3 -0.1
v 0.1 1 -0.1
v 0.1 1.2 -0.1
v 0.1 1.3 -0.1
v -0.2 0 0.1
v -0.1 0 0.1
v 0 0 0.1
v 0.1 0 0.1
v -0.2 0 0
v -0.1 0 0
v 0 0 0
v 0.1 0 0
v -0.1 0.4 0.1
v 0 0.4 0.1
v -0.1 0.4 0
v 0 0.4 0
v -0.3 0.5 0.1
v -0.2 0.5 0.1
v 0.1 0.5 0.1
v 0.2 0.5 0.1
v -0.3 0.5 0
v -0.2 0.5 0
v 0.1 0.5 0
v 0.2 0.5 0
v -0.2 0.7 0.1
v -0.1 0.7 0.1
v 0 0.7 0.1
v 0.1 0.7 0.1
v -0.2 0.7 0
v -0.1 0.7 0
v 0 0.7 0
v 0.1 0.7 0
v -0.2 0.9 0.1
v -0.1 0.9 0.1
v 0 0.9 0.1
v 0.1 0.9 0.1
v -0.2 0.9 0
v -0.1 0.9 0
v 0 0.9 0
v 0.1 0.9 0
v -0.2 1 0.2
v 0 1 0.2
v 0.1 1 0.2
v -0.2 1 0.1
v 0 1 0.1
v 0.1 1 0.1
v -0.2 1 0
v 0.1 1 0
v -0.2 1 -0.1
v 0.1 1 -0.1
v -0.2 0.5 0.1
v -0.1 0.5 0.1
v 0 0.5 0.1
v 0.1 0.5 0.1
v -0.2 0.5 0
v -0.1 0.5 0
v 0 0.5 0
v 0.1 0.5 0
v -0.2 0.8 0.1
v -0.1 0.8 0.1
v 0 0.8 0.1
v 0.1 0.8 0.1
v -0.2 0.8 0
v -0.1 0.8 0
v 0 0.8 0
v 0.1 0.8 0
v -0.3 1 0.1
v -0.2 1 0.1
v 0.1 1 0.1
v 0.2 1 0.1
v -0.3 1 0
v -0.2 1 0
v 0.1 1 0
v 0.2 1 0
v -0.2 1.3 0.2
v 0 1.3 0.2
v 0.1 1.3 0.2
v -0.2 1.3 0.1
v 0 1.3 0.1
v -0.1 1.3 0
v 0.1 1.3 0
v -0.2 1.3 -0.1
v -0.1 1.3 -0.1
v 0.1 1.3 -0.1

# faces
f 3/1/1 2/1/1 1/1/1
f 4/1/1 2/1/1 3/1/1
f 5/2/1 4/2/1 3/2/1
f 6/2/1 4/2/1 5/2/1
f 7/1/1 6/1/1 5/1/1
f 8/1/1 6/1/1 7/1/1
f 11/1/1 10/1/1 9/1/1
f 12/1/1 10/1/1 11/1/1
f 13/2/1 12/2/1 11/2/1
f 14/2/1 12/2/1 13/2/1
f 15/1/1 14/1/1 13/1/1
f 16/1/1 14/1/1 15/1/1
f 21/1/1 19/1/1 18/1/1
f 21/1/1 20/1/1 19/1/1
f 21/1/1 18/1/1 17/1/1
f 22/1/1 20/1/1 21/1/1
f 23/2/1 22/2/1 21/2/1
f 24/1/1 20/1/1 22/1/1
f 24/2/1 22/2/1 23/2/1
f 25/1/1 20/1/1 24/1/1
f 28/2/1 27/2/1 26/2/1
f 29/2/1 27/2/1 28/2/1
f 30/1/1 29/1/1 28/1/1
f 31/1/1 29/1/1 30/1/1
f 34/2/1 33/2/1 32/2/1
f 35/2/1 33/2/1 34/2/1
f 38/1/1 37/1/1 36/1/1
f 39/1/1 37/1/1 38/1/1
f 40/2/1 39/2/1 38/2/1
f 41/2/1 39/2/1 40/2/1
f 44/2/1 43/2/1 42/2/1
f 45/2/1 43/2/1 44/2/1
f 48/2/1 47/2/1 46/2/1
f 49/2/1 47/2/1 48/2/1
f 50/1/2 51/1/2 52/1/2
f 52/1/2 51/1/2 53/1/2
f 54/1/2 55/1/2 56/1/2
f 56/1/2 55/1/2 57/1/2
f 58/1/2 59/1/2 60/1/2
f 60/1/2 59/1/2 61/1/2
f 60/2/2 61/2/2 62/2/2
f 62/2/2 61/2/2 63/2/2
f 62/1/2 63/1/2 64/1/2
f 64/1/2 63/1/2 65/1/2
f 66/2/2 67/2/2 68/2/2
f 68/2/2 67/2/2 69/2/2
f 68/1/2 69/1/2 70/1/2
f 70/1/2 69/1/2 71/1/2
f 72/2/2 73/2/2 74/2/2
f 74/2/2 73/2/2 75/2/2
f 76/1/2 77/1/2 78/1/2
f 78/1/2 77/1/2 79/1/2
f 78/2/2 79/2/2 80/2/2
f 80/2/2 79/2/2 81/2/2
f 83/1/2 84/1/2 86/1/2
f 84/1/2 85/1/2 86/1/2
f 82/2/2 83/2/2 86/2/2
f 86/1/2 85/1/2 87/1/2
f 82/2/2 86/2/2 88/2/2
f 86/2/2 87/2/2 88/2/2
f 87/1/2 85/1/2 89/1/2
f 88/2/2 87/2/2 89/2/2
f 89/1/2 85/1/2 90/1/2
f 88/1/2 89/1/2 91/1/2
f 89/2/2 90/2/2 92/2/2
f 91/1/2 89/1/2 92/1/2
f 92/2/2 90/2/2 93/2/2
f 94/2/2 95/2/2 96/2/2
f 96/2/2 95/2/2 97/2/2
f 101/1/3 99/1/3 98/1/3
f 102/2/3 100/2/3 99/2/3
f 102/1/3 99/1/3 101/1/3
f 103/2/3 100/2/3 102/2/3
f 104/2/3 102/2/3 101/2/3
f 105/1/3 103/1/3 102/1/3
f 105/2/3 102/2/3 104/2/3
f 106/1/3 103/1/3 105/1/3
f 114/1/3 108/1/3 107/1/3
f 115/2/3 109/2/3 108/2/3
f 115/1/3 108/1/3 114/1/3
f 116/1/3 110/1/3 109/1/3
f 116/2/3 109/2/3 115/2/3
f 117/1/3 110/1/3 116/1/3
f 118/1/3 110/1/3 117/1/3
f 119/1/3 112/1/3 111/1/3
f 120/2/3 113/2/3 112/2/3
f 120/1/3 112/1/3 119/1/3
f 121/1/3 114/1/3 113/1/3
f 121/2/3 113/2/3 120/2/3
f 122/1/3 114/1/3 121/1/3
f 123/1/3 114/1/3 122/1/3
f 125/2/3 116/2/3 115/2/3
f 126/2/3 116/2/3 125/2/3
f 127/1/3 118/1/3 117/1/3
f 130/1/3 123/1/3 122/1/3
f 131/2/3 124/2/3 123/2/3
f 131/1/3 123/1/3 130/1/3
f 132/1/3 126/1/3 125/1/3
f 132/2/3 124/2/3 131/2/3
f 132/1/3 125/1/3 124/1/3
f 133/1/3 126/1/3 132/1/3
f 134/2/3 127/2/3 126/2/3
f 134/1/3 126/1/3 133/1/3
f 135/1/3 118/1/3 127/1/3
f 135/2/3 127/2/3 134/2/3
f 136/1/3 118/1/3 135/1/3
f 137/1/3 129/1/3 128/1/3
f 138/2/3 131/2/3 130/2/3
f 138/1/3 129/1/3 137/1/3
f 138/2/3 130/2/3 129/2/3
f 139/2/3 131/2/3 138/2/3
f 140/1/3 134/1/3 133/1/3
f 141/1/3 134/1/3 140/1/3
f 142/1/3 136/1/3 135/1/3
f 143/1/3 136/1/3 142/1/3
f 144/2/3 141/2/3 140/2/3
f 144/2/3 143/2/3 142/2/3
f 144/2/3 142/2/3 141/2/3
f 144/2/3 140/2/3 139/2/3
f 145/2/3 143/2/3 144/2/3
f 146/1/4 147/1/4 153/1/4
f 147/2/4 148/2/4 154/2/4
f 153/1/4 147/1/4 154/1/4
f 148/1/4 149/1/4 155/1/4
f 154/2/4 148/2/4 155/2/4
f 155/1/4 149/1/4 156/1/4
f 156/1/4 149/1/4 157/1/4
f 150/1/4 151/1/4 158/1/4
f 151/2/4 152/2/4 159/2/4
f 158/1/4 151/1/4 159/1/4
f 152/1/4 153/1/4 160/1/4
f 159/2/4 152/2/4 160/2/4
f 160/1/4 153/1/4 161/1/4
f 161/1/4 153/1/4 162/1/4
f 154/2/4 155/2/4 164/2/4
f 164/2/4 155/2/4 165/2/4
f 156/1/4 157/1/4 166/1/4
f 161/1/4 162/1/4 169/1/4
f 162/2/4 163/2/4 170/2/4
f 169/1/4 162/1/4 170/1/4
f 164/1/4 165/1/4 171/1/4
f 170/2/4 163/2/4 171/2/4
f 163/1/4 164/1/4 171/1/4
f 171/1/4 165/1/4 172/1/4
f 165/2/4 166/2/4 173/2/4
f 172/1/4 165/1/4 173/1/4
f 166/1/4 157/1/4 174/1/4
f 173/2/4 166/2/4 174/2/4
f 167/1/4 168/1/4 175/1/4
f 169/2/4 170/2/4 176/2/4
f 175/1/4 168/1/4 176/1/4
f 168/2/4 169/2/4 176/2/4
f 176/2/4 170/2/4 177/2/4
f 172/1/4 173/1/4 178/1/4
f 178/1/4 173/1/4 179/1/4
f 174/1/4 157/1/4 180/1/4
f 180/1/4 157/1/4 181/1/4
f 178/2/4 179/2/4 182/2/4
f 180/2/4 181/2/4 182/2/4
f 179/2/4 180/2/4 182/2/4
f 177/2/4 178/2/4 182/2/4
f 182/2/4 181/2/4 183/2/4
f 184/1/4 185/1/4 186/1/4
f 186/1/4 185/1/4 187/1/4
f 184/1/4 186/1/4 188/1/4
f 186/2/4 187/2/4 189/2/4
f 188/1/4 186/1/4 189/1/4
f 189/2/4 187/2/4 190/2/4
f 195/1/5 192/1/5 191/1/5
f 196/1/5 192/1/5 195/1/5
f 197/1/5 194/1/5 193/1/5
f 198/1/5 194/1/5 197/1/5
f 201/1/5 200/1/5 199/1/5
f 202/1/5 200/1/5 201/1/5
f 207/1/5 204/1/5 203/1/5
f 208/1/5 204/1/5 207/1/5
f 209/2/5 206/2/5 205/2/5
f 210/2/5 206/2/5 209/2/5
f 215/2/5 212/2/5 211/2/5
f 216/2/5 212/2/5 215/2/5
f 217/1/5 214/1/5 213/1/5
f 218/1/5 214/1/5 217/1/5
f 223/1/5 220/1/5 219/1/5
f 224/1/5 220/1/5 223/1/5
f 225/1/5 222/1/5 221/1/5
f 226/1/5 222/1/5 225/1/5
f 230/1/5 228/1/5 227/1/5
f 231/2/5 229/2/5 228/2/5
f 231/1/5 228/1/5 230/1/5
f 232/2/5 229/2/5 231/2/5
f 235/1/5 234/1/5 233/1/5
f 236/1/5 234/1/5 235/1/5
f 237/1/6 238/1/6 241/1/6
f 241/1/6 238/1/6 242/1/6
f 239/2/6 240/2/6 243/2/6
f 243/2/6 240/2/6 244/2/6
f 245/2/6 246/2/6 249/2/6
f 249/2/6 246/2/6 250/2/6
f 247/1/6 248/1/6 251/1/6
f 251/1/6 248/1/6 252/1/6
f 253/1/6 254/1/6 257/1/6
f 257/1/6 254/1/6 258/1/6
f 255/2/6 256/2/6 259/2/6
f 259/2/6 256/2/6 260/2/6
f 261/2/6 262/2/6 264/2/6
f 262/1/6 263/1/6 265/1/6
f 264/2/6 262/2/6 265/2/6
f 264/1/6 265/1/6 266/1/6
f 265/1/6 263/1/6 267/1/6
f 266/1/6 265/1/6 267/1/6
f 264/1/6 266/1/6 268/1/6
f 266/2/6 267/2/6 269/2/6
f 268/1/6 266/1/6 269/1/6
f 269/2/6 267/2/6 270/2/6
