# MagicaVoxel @ Ephtracy

# group
o SpiderBody

# material
mtllib SpiderBody.mtl
usemtl palette

# normals
vn -1 0 0
vn 1 0 0
vn 0 0 1
vn 0 0 -1
vn 0 -1 0
vn 0 1 0

# texcoords
vt 0.841797 0.5
vt 0.990234 0.5
vt 0.994141 0.5

# verts
v -0.3 0 5.96046e-008
v -0.3 0 -0.6
v -0.3 0.4 5.96046e-008
v -0.3 0.4 -0.6
v -0.2 0 0.6
v -0.2 0 0.2
v -0.2 0.2 0.6
v -0.2 0.2 0.5
v -0.2 0.3 0.6
v -0.2 0.3 0.5
v -0.2 0.3 0.4
v -0.2 0.3 0.2
v -0.2 0.4 0.6
v -0.2 0.4 0.5
v -0.2 0.4 0.4
v -0.2 0.4 0.2
v -0.1 0.1 0.2
v -0.1 0.1 5.96046e-008
v -0.1 0.3 0.2
v -0.1 0.3 5.96046e-008
v 0.1 0.1 0.2
v 0.1 0.1 5.96046e-008
v 0.1 0.3 0.2
v 0.1 0.3 5.96046e-008
v 0.2 0 0.6
v 0.2 0 0.2
v 0.2 0.2 0.6
v 0.2 0.2 0.5
v 0.2 0.3 0.6
v 0.2 0.3 0.5
v 0.2 0.3 0.4
v 0.2 0.3 0.2
v 0.2 0.4 0.6
v 0.2 0.4 0.4
v 0.2 0.4 0.2
v 0.3 0 5.96046e-008
v 0.3 0 -0.6
v 0.3 0.4 5.96046e-008
v 0.3 0.4 -0.6
v -0.2 0 0.6
v -0.2 0.2 0.6
v -0.2 0.3 0.6
v -0.2 0.4 0.6
v -0.1 0.1 0.6
v -0.1 0.2 0.6
v -0.1 0.3 0.6
v -0.1 0.4 0.6
v 0 0.3 0.6
v 0 0.4 0.6
v 0.1 0.1 0.6
v 0.1 0.2 0.6
v 0.1 0.3 0.6
v 0.1 0.4 0.6
v 0.2 0 0.6
v 0.2 0.2 0.6
v 0.2 0.3 0.6
v 0.2 0.4 0.6
v -0.3 0 5.96046e-008
v -0.3 0.4 5.96046e-008
v -0.1 0.1 5.96046e-008
v -0.1 0.3 5.96046e-008
v 0.1 0.1 5.96046e-008
v 0.1 0.3 5.96046e-008
v 0.3 0 5.96046e-008
v 0.3 0.4 5.96046e-008
v -0.2 0 0.2
v -0.2 0.3 0.2
v -0.2 0.4 0.2
v -0.1 0.1 0.2
v -0.1 0.3 0.2
v -0.1 0.4 0.2
v 0.1 0.1 0.2
v 0.1 0.3 0.2
v 0.1 0.4 0.2
v 0.2 0 0.2
v 0.2 0.3 0.2
v 0.2 0.4 0.2
v -0.3 0 -0.6
v -0.3 0.4 -0.6
v -0.2 0.3 -0.6
v -0.2 0.4 -0.6
v -0.1 0.3 -0.6
v -0.1 0.4 -0.6
v 0.3 0 -0.6
v 0.3 0.4 -0.6
v -0.2 0 0.6
v 0.2 0 0.6
v -0.2 0 0.2
v 0.2 0 0.2
v -0.3 0 5.96046e-008
v 0.3 0 5.96046e-008
v -0.3 0 -0.6
v 0.3 0 -0.6
v -0.1 0.1 0.2
v 0.1 0.1 0.2
v -0.1 0.1 5.96046e-008
v 0.1 0.1 5.96046e-008
v -0.1 0.3 0.2
v 0.1 0.3 0.2
v -0.1 0.3 5.96046e-008
v 0.1 0.3 5.96046e-008
v -0.2 0.4 0.6
v -0.1 0.4 0.6
v 0 0.4 0.6
v 0.1 0.4 0.6
v 0.2 0.4 0.6
v -0.2 0.4 0.5
v -0.1 0.4 0.5
v 0 0.4 0.5
v 0.1 0.4 0.5
v -0.2 0.4 0.4
v -0.1 0.4 0.4
v 0 0.4 0.4
v 0.2 0.4 0.4
v 0 0.4 0.3
v 0.1 0.4 0.3
v -0.2 0.4 0.2
v -0.1 0.4 0.2
v 0.1 0.4 0.2
v 0.2 0.4 0.2
v -0.3 0.4 5.96046e-008
v 0.3 0.4 5.96046e-008
v -0.2 0.4 -0.1
v 0 0.4 -0.1
v 0.1 0.4 -0.1
v 0.2 0.4 -0.1
v -0.2 0.4 -0.2
v 0 0.4 -0.2
v 0.1 0.4 -0.2
v 0.2 0.4 -0.2
v -0.1 0.4 -0.3
v 0 0.4 -0.3
v -0.2 0.4 -0.4
v -0.1 0.4 -0.4
v 0 0.4 -0.4
v -0.3 0.4 -0.6
v -0.2 0.4 -0.6
v -0.1 0.4 -0.6
v 0.3 0.4 -0.6

# faces
f 3/2/1 2/2/1 1/2/1
f 4/2/1 2/2/1 3/2/1
f 7/2/1 6/2/1 5/2/1
f 8/2/1 6/2/1 7/2/1
f 9/1/1 8/1/1 7/1/1
f 10/2/1 6/2/1 8/2/1
f 10/1/1 8/1/1 9/1/1
f 11/2/1 6/2/1 10/2/1
f 12/2/1 6/2/1 11/2/1
f 13/3/1 10/3/1 9/3/1
f 14/2/1 11/2/1 10/2/1
f 14/3/1 10/3/1 13/3/1
f 15/3/1 12/3/1 11/3/1
f 15/2/1 11/2/1 14/2/1
f 16/3/1 12/3/1 15/3/1
f 19/2/1 18/2/1 17/2/1
f 20/2/1 18/2/1 19/2/1
f 21/2/2 22/2/2 23/2/2
f 23/2/2 22/2/2 24/2/2
f 25/2/2 26/2/2 27/2/2
f 27/2/2 26/2/2 28/2/2
f 27/1/2 28/1/2 29/1/2
f 28/2/2 26/2/2 30/2/2
f 29/1/2 28/1/2 30/1/2
f 30/2/2 26/2/2 31/2/2
f 31/2/2 26/2/2 32/2/2
f 29/2/2 30/2/2 33/2/2
f 30/2/2 31/2/2 33/2/2
f 31/3/2 32/3/2 34/3/2
f 33/2/2 31/2/2 34/2/2
f 34/3/2 32/3/2 35/3/2
f 36/2/2 37/2/2 38/2/2
f 38/2/2 37/2/2 39/2/2
f 44/2/3 41/2/3 40/2/3
f 45/1/3 42/1/3 41/1/3
f 45/2/3 41/2/3 44/2/3
f 46/3/3 43/3/3 42/3/3
f 46/1/3 42/1/3 45/1/3
f 47/3/3 43/3/3 46/3/3
f 48/2/3 46/2/3 45/2/3
f 48/2/3 47/2/3 46/2/3
f 49/2/3 47/2/3 48/2/3
f 50/1/3 45/1/3 44/1/3
f 50/2/3 44/2/3 40/2/3
f 51/2/3 48/2/3 45/2/3
f 51/1/3 45/1/3 50/1/3
f 52/3/3 49/3/3 48/3/3
f 52/2/3 48/2/3 51/2/3
f 53/3/3 49/3/3 52/3/3
f 54/2/3 51/2/3 50/2/3
f 54/2/3 50/2/3 40/2/3
f 55/1/3 52/1/3 51/1/3
f 55/2/3 51/2/3 54/2/3
f 56/2/3 53/2/3 52/2/3
f 56/1/3 52/1/3 55/1/3
f 57/2/3 53/2/3 56/2/3
f 60/2/3 59/2/3 58/2/3
f 61/2/3 59/2/3 60/2/3
f 62/2/3 60/2/3 58/2/3
f 63/2/3 59/2/3 61/2/3
f 64/2/3 62/2/3 58/2/3
f 64/2/3 63/2/3 62/2/3
f 65/2/3 59/2/3 63/2/3
f 65/2/3 63/2/3 64/2/3
f 66/2/4 67/2/4 69/2/4
f 67/3/4 68/3/4 70/3/4
f 69/2/4 67/2/4 70/2/4
f 70/3/4 68/3/4 71/3/4
f 66/2/4 69/2/4 72/2/4
f 70/2/4 71/2/4 73/2/4
f 73/2/4 71/2/4 74/2/4
f 66/2/4 72/2/4 75/2/4
f 72/2/4 73/2/4 75/2/4
f 73/3/4 74/3/4 76/3/4
f 75/2/4 73/2/4 76/2/4
f 76/3/4 74/3/4 77/3/4
f 78/2/4 79/2/4 80/2/4
f 80/2/4 79/2/4 81/2/4
f 78/2/4 80/2/4 82/2/4
f 80/3/4 81/3/4 82/3/4
f 82/3/4 81/3/4 83/3/4
f 78/2/4 82/2/4 84/2/4
f 82/2/4 83/2/4 84/2/4
f 84/2/4 83/2/4 85/2/4
f 88/2/5 87/2/5 86/2/5
f 89/2/5 87/2/5 88/2/5
f 92/2/5 91/2/5 90/2/5
f 93/2/5 91/2/5 92/2/5
f 96/2/5 95/2/5 94/2/5
f 97/2/5 95/2/5 96/2/5
f 98/2/6 99/2/6 100/2/6
f 100/2/6 99/2/6 101/2/6
f 102/3/6 103/3/6 107/3/6
f 103/2/6 104/2/6 108/2/6
f 107/3/6 103/3/6 108/3/6
f 104/3/6 105/3/6 109/3/6
f 108/2/6 104/2/6 109/2/6
f 105/2/6 106/2/6 110/2/6
f 109/3/6 105/3/6 110/3/6
f 108/2/6 109/2/6 111/2/6
f 107/2/6 108/2/6 111/2/6
f 109/2/6 110/2/6 111/2/6
f 111/2/6 110/2/6 112/2/6
f 112/2/6 110/2/6 113/2/6
f 110/2/6 106/2/6 114/2/6
f 113/2/6 110/2/6 114/2/6
f 112/2/6 113/2/6 115/2/6
f 113/3/6 114/3/6 115/3/6
f 115/3/6 114/3/6 116/3/6
f 111/3/6 112/3/6 117/3/6
f 112/2/6 115/2/6 118/2/6
f 117/3/6 112/3/6 118/3/6
f 115/2/6 116/2/6 118/2/6
f 116/3/6 114/3/6 119/3/6
f 118/2/6 116/2/6 119/2/6
f 119/3/6 114/3/6 120/3/6
f 121/2/6 122/2/6 123/2/6
f 123/2/6 122/2/6 124/2/6
f 124/2/6 122/2/6 125/2/6
f 125/2/6 122/2/6 126/2/6
f 121/2/6 123/2/6 127/2/6
f 123/3/6 124/3/6 127/3/6
f 124/2/6 125/2/6 128/2/6
f 127/3/6 124/3/6 128/3/6
f 125/3/6 126/3/6 129/3/6
f 128/2/6 125/2/6 129/2/6
f 126/2/6 122/2/6 130/2/6
f 129/3/6 126/3/6 130/3/6
f 128/2/6 129/2/6 131/2/6
f 127/2/6 128/2/6 131/2/6
f 129/2/6 130/2/6 131/2/6
f 131/2/6 130/2/6 132/2/6
f 121/2/6 127/2/6 133/2/6
f 127/2/6 131/2/6 133/2/6
f 131/3/6 132/3/6 134/3/6
f 133/2/6 131/2/6 134/2/6
f 132/2/6 130/2/6 135/2/6
f 134/3/6 132/3/6 135/3/6
f 121/2/6 133/2/6 136/2/6
f 133/3/6 134/3/6 137/3/6
f 136/2/6 133/2/6 137/2/6
f 134/2/6 135/2/6 138/2/6
f 137/3/6 134/3/6 138/3/6
f 130/2/6 122/2/6 139/2/6
f 138/2/6 135/2/6 139/2/6
f 135/2/6 130/2/6 139/2/6
