# MagicaVoxel @ Ephtracy

# group
o 

# material
mtllib Zombie.mtl
usemtl palette

# normals
vn -1 0 0
vn 1 0 0
vn 0 0 1
vn 0 0 -1
vn 0 -1 0
vn 0 1 0

# texcoords
vt 0.732422 0.5
vt 0.736328 0.5
vt 0.830078 0.5
vt 0.900391 0.5
vt 0.978516 0.5

# verts
v -0.4 1 0.2
v -0.4 1 -0.2
v -0.4 1.4 0.2
v -0.4 1.4 -0.2
v -0.3 0 0.2
v -0.3 0 -0.2
v -0.3 0.1 0.2
v -0.3 0.1 -0.2
v -0.3 0.5 0.2
v -0.3 0.5 -0.2
v -0.3 0.8 0.4
v -0.3 0.8 0.2
v -0.3 0.8 -0.2
v -0.3 0.8 -0.4
v -0.3 1 0.4
v -0.3 1 0.2
v -0.3 1 -0.2
v -0.3 1 -0.4
v -0.1 0 0.2
v -0.1 0 -0.2
v -0.1 0.1 0.2
v -0.1 0.1 -0.2
v -0.1 0.5 0.2
v -0.1 0.5 -0.2
v -0.1 0.8 0.2
v -0.1 0.8 -0.2
v -0.1 1 0.2
v -0.1 1 -0.2
v 0 1 0.2
v 0 1 -0.2
v 0 1.4 0.2
v 0 1.4 -0.2
v 0.3 0.8 0.4
v 0.3 0.8 0.2
v 0.3 0.8 -0.2
v 0.3 0.8 -0.4
v 0.3 1 0.4
v 0.3 1 0.2
v 0.3 1 -0.2
v 0.3 1 -0.4
v -0.3 0.8 0.4
v -0.3 1 0.4
v -0.1 0.8 0.4
v -0.1 1 0.4
v 0.3 0.8 0.4
v 0.3 1 0.4
v -0.4 1 0.2
v -0.4 1.4 0.2
v -0.3 0 0.2
v -0.3 0.1 0.2
v -0.3 0.5 0.2
v -0.3 0.8 0.2
v -0.3 1 0.2
v -0.2 0.8 0.2
v -0.1 0 0.2
v -0.1 0.1 0.2
v -0.1 0.5 0.2
v -0.1 0.8 0.2
v -0.1 1 0.2
v 0 1 0.2
v 0 1.4 0.2
v -0.1 0.8 -0.2
v -0.1 1 -0.2
v 0 1 -0.2
v 0.3 0.8 -0.2
v 0.3 1 -0.2
v -0.1 0.8 0.2
v -0.1 1 0.2
v 0 1 0.2
v 0.3 0.8 0.2
v 0.3 1 0.2
v -0.4 1 -0.2
v -0.4 1.4 -0.2
v -0.3 0 -0.2
v -0.3 0.1 -0.2
v -0.3 0.5 -0.2
v -0.3 0.8 -0.2
v -0.3 1 -0.2
v -0.1 0 -0.2
v -0.1 0.1 -0.2
v -0.1 0.5 -0.2
v -0.1 0.8 -0.2
v -0.1 1 -0.2
v 0 1 -0.2
v 0 1.4 -0.2
v -0.3 0.8 -0.4
v -0.3 1 -0.4
v -0.1 0.8 -0.4
v -0.1 1 -0.4
v 0.3 0.8 -0.4
v 0.3 1 -0.4
v -0.3 0 0.2
v -0.1 0 0.2
v -0.3 0 -0.2
v -0.1 0 -0.2
v -0.3 0.8 0.4
v -0.1 0.8 0.4
v 0.3 0.8 0.4
v -0.2 0.8 0.3
v -0.1 0.8 0.3
v -0.3 0.8 0.2
v -0.2 0.8 0.2
v -0.1 0.8 0.2
v 0.3 0.8 0.2
v -0.3 0.8 -0.2
v -0.1 0.8 -0.2
v 0.3 0.8 -0.2
v -0.3 0.8 -0.4
v -0.1 0.8 -0.4
v 0.3 0.8 -0.4
v -0.4 1 0.2
v -0.3 1 0.2
v -0.1 1 0.2
v 0 1 0.2
v -0.4 1 -0.2
v -0.3 1 -0.2
v -0.1 1 -0.2
v 0 1 -0.2
v -0.3 1 0.4
v -0.1 1 0.4
v 0.3 1 0.4
v -0.3 1 0.2
v -0.1 1 0.2
v 0 1 0.2
v 0.3 1 0.2
v -0.3 1 -0.2
v -0.1 1 -0.2
v 0 1 -0.2
v 0.3 1 -0.2
v -0.3 1 -0.4
v -0.1 1 -0.4
v 0.3 1 -0.4
v -0.4 1.4 0.2
v 0 1.4 0.2
v -0.4 1.4 -0.2
v 0 1.4 -0.2

# faces
f 3/4/1 2/4/1 1/4/1
f 4/4/1 2/4/1 3/4/1
f 7/5/1 6/5/1 5/5/1
f 8/5/1 6/5/1 7/5/1
f 9/3/1 8/3/1 7/3/1
f 10/3/1 8/3/1 9/3/1
f 12/2/1 10/2/1 9/2/1
f 13/2/1 10/2/1 12/2/1
f 15/2/1 13/2/1 12/2/1
f 15/2/1 14/2/1 13/2/1
f 15/2/1 12/2/1 11/2/1
f 16/2/1 14/2/1 15/2/1
f 17/2/1 14/2/1 16/2/1
f 18/2/1 14/2/1 17/2/1
f 19/5/2 20/5/2 21/5/2
f 21/5/2 20/5/2 22/5/2
f 21/3/2 22/3/2 23/3/2
f 23/3/2 22/3/2 24/3/2
f 23/2/2 24/2/2 25/2/2
f 25/2/2 24/2/2 26/2/2
f 25/2/2 26/2/2 27/2/2
f 27/2/2 26/2/2 28/2/2
f 29/4/2 30/4/2 31/4/2
f 31/4/2 30/4/2 32/4/2
f 33/4/2 34/4/2 37/4/2
f 37/4/2 34/4/2 38/4/2
f 35/4/2 36/4/2 39/4/2
f 39/4/2 36/4/2 40/4/2
f 43/2/3 42/2/3 41/2/3
f 44/2/3 42/2/3 43/2/3
f 45/4/3 44/4/3 43/4/3
f 46/4/3 44/4/3 45/4/3
f 53/4/3 48/4/3 47/4/3
f 54/2/3 52/2/3 51/2/3
f 55/5/3 50/5/3 49/5/3
f 56/3/3 51/3/3 50/3/3
f 56/5/3 50/5/3 55/5/3
f 57/2/3 54/2/3 51/2/3
f 57/3/3 51/3/3 56/3/3
f 58/2/3 54/2/3 57/2/3
f 59/4/3 48/4/3 53/4/3
f 60/4/3 48/4/3 59/4/3
f 61/4/3 48/4/3 60/4/3
f 64/4/3 63/4/3 62/4/3
f 65/4/3 64/4/3 62/4/3
f 66/4/3 64/4/3 65/4/3
f 67/4/4 68/4/4 69/4/4
f 67/4/4 69/4/4 70/4/4
f 70/4/4 69/4/4 71/4/4
f 72/4/4 73/4/4 78/4/4
f 74/5/4 75/5/4 79/5/4
f 75/3/4 76/3/4 80/3/4
f 79/5/4 75/5/4 80/5/4
f 76/2/4 77/2/4 81/2/4
f 80/3/4 76/3/4 81/3/4
f 81/2/4 77/2/4 82/2/4
f 78/4/4 73/4/4 83/4/4
f 83/4/4 73/4/4 84/4/4
f 84/4/4 73/4/4 85/4/4
f 86/2/4 87/2/4 88/2/4
f 88/2/4 87/2/4 89/2/4
f 88/4/4 89/4/4 90/4/4
f 90/4/4 89/4/4 91/4/4
f 94/5/5 93/5/5 92/5/5
f 95/5/5 93/5/5 94/5/5
f 99/2/5 97/2/5 96/2/5
f 100/4/5 98/4/5 97/4/5
f 100/2/5 97/2/5 99/2/5
f 101/2/5 99/2/5 96/2/5
f 102/1/5 100/1/5 99/1/5
f 102/2/5 99/2/5 101/2/5
f 103/4/5 98/4/5 100/4/5
f 103/1/5 100/1/5 102/1/5
f 104/4/5 98/4/5 103/4/5
f 108/2/5 106/2/5 105/2/5
f 109/4/5 107/4/5 106/4/5
f 109/2/5 106/2/5 108/2/5
f 110/4/5 107/4/5 109/4/5
f 115/4/5 112/4/5 111/4/5
f 116/4/5 112/4/5 115/4/5
f 117/4/5 114/4/5 113/4/5
f 118/4/5 114/4/5 117/4/5
f 119/2/6 120/2/6 122/2/6
f 120/4/6 121/4/6 123/4/6
f 122/2/6 120/2/6 123/2/6
f 123/4/6 121/4/6 124/4/6
f 124/4/6 121/4/6 125/4/6
f 126/2/6 127/2/6 130/2/6
f 128/4/6 129/4/6 131/4/6
f 130/2/6 127/2/6 131/2/6
f 127/4/6 128/4/6 131/4/6
f 131/4/6 129/4/6 132/4/6
f 133/4/6 134/4/6 135/4/6
f 135/4/6 134/4/6 136/4/6
